<svg xmlns="http://www.w3.org/2000/svg" width="29.313" height="29.313" viewBox="0 0 29.313 29.313">
    <defs>
        <style>
            .cls-1{fill:#fff}
        </style>
    </defs>
    <g id="round-supervised_user_circle-24px" transform="translate(-2.428 -2.428)">
        <path id="Path_336" d="M16.657 2a14.657 14.657 0 1 0 14.656 14.657A14.662 14.662 0 0 0 16.657 2zm5.291 9.292a2.829 2.829 0 1 1-2.829 2.829 2.821 2.821 0 0 1 2.829-2.829zm-8.794-2.315a3.459 3.459 0 1 1-3.459 3.459 3.465 3.465 0 0 1 3.459-3.459zm0 13.381v5.5a11.735 11.735 0 0 1-7.533-7.27c1.539-1.642 5.379-2.477 7.533-2.477a14.909 14.909 0 0 1 2.785.322c-2.404 1.272-2.785 2.958-2.785 3.925zm3.5 6.024a10.041 10.041 0 0 1-1.158-.059v-5.965c0-2.081 4.309-3.122 6.449-3.122a10.391 10.391 0 0 1 5.628 1.686 11.753 11.753 0 0 1-10.916 7.46z" class="cls-1" data-name="Path 336" transform="translate(.428 .428)"/>
    </g>
</svg>
