<svg xmlns="http://www.w3.org/2000/svg" width="27.232" height="27.233" viewBox="0 0 27.232 27.233">
    <defs>
        <style>
            .cls-1{fill:#fff}
        </style>
    </defs>
    <g id="instagram-logo">
        <ellipse id="Ellipse_72" cx="12.066" cy="12.341" data-name="Ellipse 72" rx="12.066" ry="12.341" transform="translate(1.645 1.097)"/>
        <g id="Group_50" data-name="Group 50">
            <g id="Group_49" data-name="Group 49">
                <path id="Path_195" d="M22.582 25.308a2.721 2.721 0 1 0-2.725-2.726 2.73 2.73 0 0 0 2.725 2.726z" class="cls-1" data-name="Path 195" transform="translate(-8.966 -8.966)"/>
                <path id="Path_196" d="M33.517 16.585V13.96h-.342l-2.284.007.009 2.626z" class="cls-1" data-name="Path 196" transform="translate(-13.948 -6.303)"/>
                <path id="Path_197" d="M13.616 0a13.616 13.616 0 1 0 13.617 13.616A13.632 13.632 0 0 0 13.616 0zm7.744 12.027v6.34a3 3 0 0 1-2.993 2.994h-9.5a3 3 0 0 1-2.993-2.994v-9.5a3 3 0 0 1 2.991-2.994h9.5a3 3 0 0 1 2.995 2.993z" class="cls-1" data-name="Path 197"/>
                <path id="Path_198" d="M23.928 23.518a4.236 4.236 0 1 1-8.16-1.589h-2.311v6.34a1.484 1.484 0 0 0 1.484 1.483h9.5a1.485 1.485 0 0 0 1.484-1.483v-6.34h-2.311a4.178 4.178 0 0 1 .314 1.589z" class="cls-1" data-name="Path 198" transform="translate(-6.076 -9.902)"/>
            </g>
        </g>
    </g>
</svg>
