<svg xmlns="http://www.w3.org/2000/svg" width="27.5" height="17.5" viewBox="0 0 27.5 17.5">
    <defs>
        <style>
            .cls-1{fill:#fff}
        </style>
    </defs>
    <g id="round-people-24px">
        <path id="Path_151" d="M19.75 12.5A3.75 3.75 0 1 0 16 8.75a3.734 3.734 0 0 0 3.75 3.75zm-10 0A3.75 3.75 0 1 0 6 8.75a3.734 3.734 0 0 0 3.75 3.75zm0 2.5C6.838 15 1 16.462 1 19.375v1.875a1.254 1.254 0 0 0 1.25 1.25h15a1.254 1.254 0 0 0 1.25-1.25v-1.875C18.5 16.462 12.663 15 9.75 15zm10 0c-.362 0-.775.025-1.212.063.025.013.037.038.05.05A5.2 5.2 0 0 1 21 19.375v1.875a3.756 3.756 0 0 1-.225 1.25h6.475a1.254 1.254 0 0 0 1.25-1.25v-1.875c0-2.913-5.837-4.375-8.75-4.375z" class="cls-1" data-name="Path 151" transform="translate(-1 -5)"/>
    </g>
</svg>
