<svg xmlns="http://www.w3.org/2000/svg" width="23.434" height="23.434" viewBox="0 0 23.434 23.434">
    <defs>
        <style>
            .cls-1{fill:#fff}
        </style>
    </defs>
    <g id="round-call-24px">
        <path id="Path_191" d="M24.164 18.99l-3.313-.378a2.6 2.6 0 0 0-2.139.744l-2.4 2.4a19.627 19.627 0 0 1-8.6-8.6l2.413-2.413a2.6 2.6 0 0 0 .744-2.139l-.378-3.287A2.611 2.611 0 0 0 7.9 3.01H5.64a2.589 2.589 0 0 0-2.609 2.7A22.166 22.166 0 0 0 23.76 26.439a2.589 2.589 0 0 0 2.7-2.609v-2.257a2.586 2.586 0 0 0-2.296-2.583z" class="cls-1" data-name="Path 191" transform="translate(-3.026 -3.01)"/>
    </g>
</svg>
