<svg xmlns="http://www.w3.org/2000/svg" width="73.417" height="73.411" viewBox="0 0 73.417 73.411">
    <defs>
        <style>
            .cls-1{fill:#00bcd4}.cls-2{fill:#008ea0}.cls-3{fill:#f9e109}.cls-4{fill:#fcbc04}.cls-5{fill:#e59730}.cls-6{fill:#c5cfd6}.cls-7{fill:#707070}.cls-8{fill:#252525}
        </style>
    </defs>
    <g id="Fill_Outline" data-name="Fill Outline">
        <path id="Path_438" d="M45 3h19.576v24.47H45z" class="cls-1" data-name="Path 438" transform="translate(7.617 -1.776)"/>
        <path id="Path_439" d="M49.894 12.788V3H45v24.47h19.576v-4.894h-4.894a9.788 9.788 0 0 1-9.788-9.788z" class="cls-2" data-name="Path 439" transform="translate(7.617 -1.776)"/>
        <path id="Path_440" d="M47.247 16a18.353 18.353 0 0 0-18.353 18.353L24 46.588h4.894v4.894a9.788 9.788 0 0 0 9.788 9.788h3.059a11.366 11.366 0 0 0 1.835-.159v9.947H65.6V34.353A18.353 18.353 0 0 0 47.247 16z" class="cls-3" data-name="Path 440" transform="translate(2.923 1.129)"/>
        <path id="Path_441" d="M34.179 38.927a8.565 8.565 0 1 0 8.565-8.565h-.6L37.421 17.43a18.071 18.071 0 0 0-4.221 2.728l4.356 11.966a8.565 8.565 0 0 0-3.377 6.803z" class="cls-4" data-name="Path 441" transform="translate(4.98 1.449)"/>
        <path id="Path_442" d="M59.482 47.73a23.859 23.859 0 0 1-23.859-23.858A24.471 24.471 0 0 1 36.1 19.1a18.353 18.353 0 0 0-7.207 14.56L24 45.9h4.894v4.894a9.788 9.788 0 0 0 9.788 9.788h3.059a11.366 11.366 0 0 0 1.835-.159v9.947H65.6V46.911a24.042 24.042 0 0 1-6.118.82z" class="cls-4" data-name="Path 442" transform="translate(2.923 1.822)"/>
        <path id="Path_443" d="M40 54.964v3.671a11.623 11.623 0 0 0 9.788-11.464V43.5A11.623 11.623 0 0 1 40 54.964z" class="cls-5" data-name="Path 443" transform="translate(6.5 7.276)"/>
        <path id="Path_444" d="M2.447 0a2.447 2.447 0 0 1 2.447 2.447v19.576H0V2.447A2.447 2.447 0 0 1 2.447 0z" class="cls-1" data-name="Path 444" transform="rotate(-19.993 60.87 -105.408)"/>
        <path id="Path_445" d="M44.139 27.626a2.447 2.447 0 0 1-3.132-1.468L36.284 13.25a2.447 2.447 0 0 0-1.138 2.973l6.693 18.353 4.6-1.676-1.958-5.4z" class="cls-2" data-name="Path 445" transform="translate(5.383 .515)"/>
        <circle id="Ellipse_92" cx="8.565" cy="8.565" r="8.565" class="cls-1" data-name="Ellipse 92" transform="translate(42.829 30.588)"/>
        <rect id="Rectangle_134" width="7.341" height="4.894" class="cls-6" data-name="Rectangle 134" rx="2" transform="translate(37.935 52.611)"/>
        <circle id="Ellipse_93" cx="2.447" cy="2.447" r="2.447" class="cls-1" data-name="Ellipse 93" transform="translate(48.947 36.706)"/>
        <path id="Path_446" d="M48.013 40.065a8.565 8.565 0 0 1-8.564-8.565 8.76 8.76 0 0 1 .451-2.74 8.565 8.565 0 1 0 13.777 9.152 8.565 8.565 0 0 1-5.664 2.153z" class="cls-2" data-name="Path 446" transform="translate(5.827 3.981)"/>
        <path id="Path_447" d="M45.672 35.63a2.438 2.438 0 0 1-2.227-3.45 2.447 2.447 0 1 0 3.23 3.23 2.447 2.447 0 0 1-1.003.22z" class="cls-2" data-name="Path 447" transform="translate(6.945 4.746)"/>
        <path id="Path_448" d="M39.121 47.389h-2.447a2.447 2.447 0 0 1-2.447-2.129 2.447 2.447 0 0 0 1.224 4.576H37.9a2.447 2.447 0 0 0 2.447-2.447 2.52 2.52 0 0 0 0-.318 2.447 2.447 0 0 1-1.226.318z" class="cls-7" data-name="Path 448" transform="translate(4.932 7.669)"/>
        <path id="Path_449" d="M3 51h17.129v12.235H3z" class="cls-4" data-name="Path 449" transform="translate(-1.771 8.952)"/>
        <path id="Path_450" d="M5.447 53.447V51H3v12.235h17.129v-2.447h-7.341a7.341 7.341 0 0 1-7.341-7.341z" class="cls-5" data-name="Path 450" transform="translate(-1.771 8.952)"/>
        <path id="Path_451" d="M11.565 60.788L3 51h17.129z" class="cls-5" data-name="Path 451" transform="translate(-1.771 8.952)"/>
        <path id="Path_452" d="M17 60.341V53h7.341z" class="cls-3" data-name="Path 452" transform="translate(1.359 9.4)"/>
        <path id="Path_453" d="M11.565 58.341L3 51h17.129z" class="cls-3" data-name="Path 453" transform="translate(-1.771 8.952)"/>
        <path id="Path_454" d="M26.247 3H7.894A4.894 4.894 0 0 0 3 7.894v6.118a4.894 4.894 0 0 0 4.894 4.894h11.012l7.341 7.341v-7.341a4.894 4.894 0 0 0 4.894-4.894V7.894A4.894 4.894 0 0 0 26.247 3z" class="cls-1" data-name="Path 454" transform="translate(-1.771 -1.776)"/>
        <path id="Path_455" d="M25.023 6.671V3h1.224a4.894 4.894 0 0 1 4.894 4.894v6.118a4.894 4.894 0 0 1-4.894 4.894v7.341l-7.341-7.341H7.894A4.894 4.894 0 0 1 3 14.012h14.682a7.341 7.341 0 0 0 7.341-7.341z" class="cls-2" data-name="Path 455" transform="translate(-1.771 -1.776)"/>
        <path id="Path_456" d="M20.107 35.788a7.953 7.953 0 0 0-.122-1.334l2.447-1.444-2.447-4.233-2.447 1.432a7.574 7.574 0 0 0-2.325-1.334V26h-4.894v2.875a7.574 7.574 0 0 0-2.325 1.334l-2.447-1.432L3.1 33.011l2.447 1.444a7.341 7.341 0 0 0 0 2.667L3.1 38.566 5.547 42.8l2.447-1.432a7.574 7.574 0 0 0 2.325 1.332v2.875h4.894V42.7a7.574 7.574 0 0 0 2.325-1.334l2.447 1.434 2.447-4.233-2.447-1.444a7.952 7.952 0 0 0 .122-1.334zm-7.341 2.447a2.447 2.447 0 1 1 2.447-2.447 2.447 2.447 0 0 1-2.447 2.447z" class="cls-6" data-name="Path 456" transform="translate(-1.748 3.364)"/>
        <path id="Path_457" d="M18.888 40.175A13.459 13.459 0 0 1 5.527 28.27L3.08 32.5l2.447 1.444a7.341 7.341 0 0 0 0 2.667L3.08 38.058l2.447 4.233 2.447-1.431a7.574 7.574 0 0 0 2.349 1.334v2.875h4.894v-2.875a7.574 7.574 0 0 0 2.325-1.334l2.447 1.432 1.346-2.361a12.884 12.884 0 0 1-2.447.244z" class="cls-7" data-name="Path 457" transform="translate(-1.753 3.872)"/>
        <g id="Group_345" data-name="Group 345">
            <path id="Path_458" d="M47.471 15.625a19.271 19.271 0 0 0-3.316.33L43.58 14.4a3.671 3.671 0 0 0-6.9 2.447l.587 1.615a19.576 19.576 0 0 0-9.372 16.493l-4.809 12.029a1.223 1.223 0 0 0 1.138 1.676h3.671v3.67a11.012 11.012 0 0 0 11.011 11.012h3.671v8.565a1.224 1.224 0 1 0 2.447 0v-9.948a1.228 1.228 0 0 0-1.424-1.211 10.168 10.168 0 0 1-1.64.147h-3.054a8.565 8.565 0 0 1-8.565-8.565v-4.894a1.224 1.224 0 0 0-1.224-1.224h-3.082l4.221-10.559a1.15 1.15 0 0 0 .086-.453 17.128 17.128 0 0 1 7.78-14.351l2.449 6.887a1.224 1.224 0 1 0 2.3-.832l-3.953-10.863a1.206 1.206 0 1 1 2.264-.832l5.151 14.144a9.788 9.788 0 0 0 1.138 19.221v1.309a3.671 3.671 0 0 1-3.671 3.671h-.22a3.671 3.671 0 0 0-3.45-2.447h-2.447a3.671 3.671 0 1 0 0 7.341h2.447A3.671 3.671 0 0 0 43.58 56h.22a6.118 6.118 0 0 0 6.118-6.118v-1.308a9.788 9.788 0 0 0-.979-19.491l-3.915-10.8A16.946 16.946 0 0 1 64.6 35.2v36.707a1.224 1.224 0 1 0 2.447 0V35.2a19.576 19.576 0 0 0-19.576-19.575zM40.13 56h-2.447a1.224 1.224 0 1 1 0-2.447h2.447a1.224 1.224 0 0 1 0 2.447zm15.905-17.128a7.341 7.341 0 1 1-7.953-7.341h.612a7.341 7.341 0 0 1 7.341 7.341z" class="cls-8" data-name="Path 458" transform="translate(2.699 .281)"/>
            <path id="Path_459" d="M41 34.671A3.671 3.671 0 1 0 44.671 31 3.671 3.671 0 0 0 41 34.671zm4.894 0a1.224 1.224 0 1 1-1.224-1.224 1.224 1.224 0 0 1 1.224 1.224z" class="cls-8" data-name="Path 459" transform="translate(6.723 4.482)"/>
            <path id="Path_460" d="M8.118 20.353h6.118a1.224 1.224 0 1 0 0-2.447H8.118a3.671 3.671 0 0 1-3.671-3.671V8.118a3.671 3.671 0 0 1 3.671-3.671H26.47a3.671 3.671 0 0 1 3.671 3.671v6.118a3.671 3.671 0 0 1-3.671 3.671 1.224 1.224 0 0 0-1.224 1.224v4.392L20 18.261A1.229 1.229 0 0 0 18.261 20l7.339 7.339a1.224 1.224 0 0 0 .869.355 1.028 1.028 0 0 0 .465-.1 1.224 1.224 0 0 0 .759-1.126V20.23a6.118 6.118 0 0 0 4.894-6V8.118A6.118 6.118 0 0 0 26.47 2H8.118A6.118 6.118 0 0 0 2 8.118v6.118a6.118 6.118 0 0 0 6.118 6.118z" class="cls-8" data-name="Path 460" transform="translate(-1.994 -2)"/>
            <path id="Path_461" d="M23.459 7.224A1.224 1.224 0 0 0 22.235 6H11.224a1.224 1.224 0 0 0 0 2.447h11.011a1.224 1.224 0 0 0 1.224-1.223z" class="cls-8" data-name="Path 461" transform="translate(-.206 -1.106)"/>
            <path id="Path_462" d="M7 11.224a1.224 1.224 0 0 0 1.224 1.224h8.565a1.224 1.224 0 1 0 0-2.447H8.224A1.224 1.224 0 0 0 7 11.224z" class="cls-8" data-name="Path 462" transform="translate(-.877 -.212)"/>
            <circle id="Ellipse_94" cx="1.224" cy="1.224" r="1.224" class="cls-8" data-name="Ellipse 94" transform="translate(19.582 9.788)"/>
            <path id="Path_463" d="M27.694 52.447h-6.118v-1.223A1.224 1.224 0 0 0 20.353 50H3.224A1.224 1.224 0 0 0 2 51.224v12.235a1.224 1.224 0 0 0 1.224 1.224h17.129a1.224 1.224 0 0 0 1.224-1.224v-1.946l6.986-6.974a1.231 1.231 0 0 0-.869-2.092zm-10.645 0l-5.261 4.5-5.261-4.5zm2.08 9.788H4.447v-8.356l6.546 5.616a1.224 1.224 0 0 0 1.591 0l6.546-5.616zm2.447-4.172v-3.169h3.169z" class="cls-8" data-name="Path 463" transform="translate(-1.994 8.729)"/>
            <path id="Path_464" d="M23.682 32.623l-2.447-4.233a1.224 1.224 0 0 0-1.664-.453l-1.786 1.028a8.785 8.785 0 0 0-1.224-.685v-2.056A1.224 1.224 0 0 0 15.337 25h-4.894a1.224 1.224 0 0 0-1.223 1.224v2.056a8.932 8.932 0 0 0-1.22.684l-1.717-1.028a1.224 1.224 0 0 0-1.676.453L2.16 32.623a1.224 1.224 0 0 0 .453 1.677l1.835 1.028V36.7l-1.835 1.025a1.222 1.222 0 1 0 1.224 2.117l2.446-1.432a1.224 1.224 0 0 0 .617-1.285 5.689 5.689 0 0 1 0-2.227 1.224 1.224 0 0 0-.575-1.334L4.9 32.745l1.224-2.129 1.419.832a1.224 1.224 0 0 0 1.407-.135 6.228 6.228 0 0 1 1.934-1.113 1.224 1.224 0 0 0 .82-1.15v-1.6h2.447v1.65a1.224 1.224 0 0 0 .808 1.15 5.959 5.959 0 0 1 1.933 1.113 1.224 1.224 0 0 0 1.408.137l1.432-.832 1.224 2.129-1.432.771a1.224 1.224 0 0 0-.587 1.285 5.689 5.689 0 0 1 0 2.227 1.224 1.224 0 0 0 .587 1.383l1.432.82-1.226 2.124-1.43-.832a1.224 1.224 0 0 0-1.407.135 5.958 5.958 0 0 1-1.933 1.113 1.224 1.224 0 0 0-.808 1.15v1.6H11.7v-1.648a1.224 1.224 0 0 0-.82-1.15 6.228 6.228 0 0 1-1.933-1.113 1.224 1.224 0 0 0-1.407-.135L5.1 41.97a1.222 1.222 0 1 0 1.22 2.117l1.8-1.028a8.1 8.1 0 0 0 1.224.685V45.8a1.224 1.224 0 0 0 1.224 1.224h4.892a1.224 1.224 0 0 0 1.223-1.224v-2.056a8.785 8.785 0 0 0 1.224-.685l1.786 1.028a1.224 1.224 0 0 0 1.664-.453L23.8 39.4a1.224 1.224 0 0 0-.44-1.676L21.577 36.7a6.411 6.411 0 0 0 0-1.37l1.787-1.03a1.224 1.224 0 0 0 .318-1.676z" class="cls-8" data-name="Path 464" transform="translate(-1.995 3.141)"/>
            <path id="Path_465" d="M15.271 34.671a3.671 3.671 0 1 0-3.671 3.67 3.671 3.671 0 0 0 3.671-3.67zm-4.894 0a1.224 1.224 0 1 1 1.223 1.223 1.224 1.224 0 0 1-1.223-1.223z" class="cls-8" data-name="Path 465" transform="translate(-.669 4.482)"/>
            <path id="Path_466" d="M58.565 8.447a1.224 1.224 0 0 0 0-2.447h-7.341a1.224 1.224 0 1 0 0 2.447z" class="cls-8" data-name="Path 466" transform="translate(8.735 -1.106)"/>
            <path id="Path_467" d="M48 11.224a1.224 1.224 0 0 0 1.224 1.224h9.788a1.224 1.224 0 0 0 0-2.447h-9.788A1.224 1.224 0 0 0 48 11.224z" class="cls-8" data-name="Path 467" transform="translate(8.288 -.212)"/>
            <path id="Path_468" d="M58.118 14h-4.894a1.224 1.224 0 1 0 0 2.447h4.894a1.224 1.224 0 0 0 0-2.447z" class="cls-8" data-name="Path 468" transform="translate(9.182 .682)"/>
            <path id="Path_469" d="M64.8 2H45.224A1.224 1.224 0 0 0 44 3.224v11.2a1.224 1.224 0 1 0 2.447 0V4.447h17.129v23.247a1.224 1.224 0 1 0 2.447 0V3.224A1.224 1.224 0 0 0 64.8 2z" class="cls-8" data-name="Path 469" transform="translate(7.394 -2)"/>
        </g>
    </g>
</svg>
