<svg xmlns="http://www.w3.org/2000/svg" width="1444.866" height="709.132" viewBox="0 0 1444.866 709.132">
    <defs>
        <style>
            .cls-1{opacity:.336}.cls-2{opacity:.505}.cls-3{fill:#f2f2f2}.cls-10,.cls-3,.cls-4,.cls-5,.cls-7,.cls-8{fill-rule:evenodd}.cls-4{fill:#91b8c0;opacity:.093}.cls-10,.cls-5{fill:#c1dee2}.cls-5{opacity:.355}.cls-6{opacity:.7}.cls-7{fill:#69a1ac}.cls-8{fill:#89c5cc}.cls-9{opacity:.5}
        </style>
    </defs>
    <g id="Scene_Plants" class="cls-1" data-name="Scene/Plants" transform="translate(118 -.269)">
        <g id="Background-Shape-2" class="cls-2" transform="translate(44.547 391.895)">
            <path id="Background-Shape" d="M732.89 178.868c10.688 79.946-248.509 132.092-471.606 95.7S-64.159 96.064 42.3 20.34s679.9 78.581 690.59 158.528z" class="cls-3"/>
        </g>
        <path id="Leaf-Bottom" d="M213.8 289.959c5.858 2.532 13.3-1.15 9.729-8.468-3.821-7.836-16.4-7.276-23.494-6.745.713 0 3.387 7.229 4.228 8.3a24.1 24.1 0 0 0 9.537 6.913zm-73.307-140.241c-1.505-1.156-.123-.109 0 0zm76.912 103.7a6.784 6.784 0 0 0 .241-10.156c-3.44-3.463-9.367-3.02-13.778-2.434-2 .265-12.649 1.683-10.022 3.3a8.691 8.691 0 0 1-1.064-.441q-.419-1.268-.872-2.523c.061-.04.113-.082.178-.122-.071.036-.121.073-.183.109a98.3 98.3 0 0 0-12.3-23.589 23.129 23.129 0 0 0 5.615 1.189c5.619.413 17.133-4.539 10.5-11.644-6.36-6.811-15.279 1.321-22.018 2.731a318.259 318.259 0 0 0-22.861-25.407 1.816 1.816 0 0 0 1.062-.983c3.136 1.39 6.435 3.44 9.294 3.892 4.125.651 12.518.737 15.41-3.076 3.557-4.689-.7-8.123-5.225-8.749-6.562-.908-14.9 2.712-21.04 5.184a2.066 2.066 0 0 0-1.928.758l-.4.155c-8.156-8.074-16.591-15.853-24.969-23.455h.258a21.646 21.646 0 0 0 6.876 2.712c5.654 1.068 12.223.731 16.542-3.546 4.3-4.259 5.532-11.377.627-15.649-9.819-8.551-22.508 12.784-27.176 13.892-8.509-7.64-17.455-14.725-26.527-21.652a15.459 15.459 0 0 0 3.076.461c8.559.369 28-11.12 17.012-20.845-9.577-8.474-19.216 9.308-26.24 15.718-8.545-6.451-17.132-12.853-25.5-19.533a23.3 23.3 0 0 0 13.249-.779c4.762-1.718 12.378-5.78 8.977-12.153-3.459-6.48-12.676-2.966-17.449-.6-2.6 1.29-7.739 5.452-12.342 7.333C41.03 92.14 29.28 79.448 20.092 64.254a140.727 140.727 0 0 1-13.6-30.28C4.353 27.226.241 15.919.477 6.978c-2.415 18 4.762 39.088 12.121 54.677C19.363 75.99 29.014 88.38 40.135 99.4c-2.223 8.074-23.831 20.684-10.168 27.361 7.254 3.529 14.136-3.318 15.318-10.25.812-4.763-1.111-10.594-3.062-15.074q5.239 5.033 10.826 9.707c5.136 4.307 10.382 8.475 15.673 12.585-7.93 8.273-14.651 31.089-3.275 34.166 16.8 4.529 7.244-25.611 5.792-31.277a.9.9 0 0 0-.754.332c.065-.529.144-1.1.245-1.668 10.125 7.823 20.384 15.474 30.339 23.505-.823.678-2.058 3.169-3.061 4.512a48.918 48.918 0 0 0-5.926 9.667c-2.387 5.506-4.511 14.2 2.726 16.987 7.872 3.036 11.019-6.837 10.77-12.615-.173-4-1.459-7.734-2.231-11.619-.241-1.212.152-6.752-1.387-4.3a11.688 11.688 0 0 0-.052-1.956q2.681 2.174 5.328 4.4a2.079 2.079 0 0 0-.114.672 2 2 0 0 0 2.956 1.731q3.5 2.991 6.917 6.082a951.033 951.033 0 0 1 14.579 13.492c-.956.912-.5 2.082-1.383 3.043s-2.7 1.56-3.755 2.463a26.6 26.6 0 0 0-6.278 8.633c-2.472 5.186-5.453 15.95 2.666 17.935 8.368 2.05 12.016-8.353 12.212-14.747a162.62 162.62 0 0 0-2.386-16.3c9.007 8.567 17.89 17.48 25.994 26.6-2.3.142-8.594 5.209-9.848 6.567-3.06 3.313-7.822 10.529-1.976 13.909 5.2 3 11.146-2.05 13.055-6.753A64.474 64.474 0 0 0 161 206.153c3.359 3.87 6.574 7.772 9.581 11.7q3.007 3.914 5.669 8.049a3.768 3.768 0 0 0-1.052 1.15c-8.309 1.862-18.311 15.5-8.226 19.537 4.8 1.918 9.652-2.815 11.757-6.593.431-.773 1-4.574 1.461-7.574a157.152 157.152 0 0 1 12.538 28.978 1.831 1.831 0 0 0-1.34 1.772c-3.949 2.534-7.061 4.634-9.669 9.245-1.62 2.864-4.467 9.363.8 10.629 6.854 1.648 10.554-8.884 10.84-13.99.033-.593-.059-2.307-.163-3.877a2.276 2.276 0 0 0 .7-.05c1.881 6.238 3.454 12.573 4.774 18.932-3.622 1.379-3.245 20.759-.648 23.386 5.806 5.881 9.207-3.232 8.667-7.926-.637-5.535-3.418-10.454-6.649-14.78-.346-.458-.253-.44-.3.226a1.33 1.33 0 0 0-.357-.726 84.2 84.2 0 0 0-.134-8.518 197.233 197.233 0 0 0-3.692-22.036q-.6-2.643-1.322-5.236a42.968 42.968 0 0 0 8.8 5.018c4.152 1.608 10.504 3.242 14.365-.047zM0 6.978A20.853 20.853 0 0 1 1.163 0 54.3 54.3 0 0 0 0 6.978z" class="cls-4" transform="scale(-1) rotate(2.98 9318.54 -12946.957)"/>
        <path id="Leaf-Top" d="M155.5 13.624c4.184-1.808 9.5.822 6.95 6.049-2.729 5.6-11.715 5.2-16.781 4.818.509 0 2.419-5.164 3.02-5.928a17.216 17.216 0 0 1 6.811-4.939zm-52.419 101.844c-1.505 1.156-.124.109 0 0zm55.768-75.017a4.874 4.874 0 0 1 .176 7.343c-2.512 2.5-6.84 2.184-10.06 1.76-1.457-.192-9.236-1.217-7.317-2.387a6.378 6.378 0 0 0-.777.319q-.306.917-.637 1.825c.045.029.082.06.13.089-.052-.026-.088-.053-.134-.079a70.839 70.839 0 0 1-8.979 17.057 17.03 17.03 0 0 1 4.1-.86c4.1-.3 12.51 3.282 7.667 8.419-4.644 4.925-11.156-.955-16.077-1.975a230.915 230.915 0 0 1-16.692 18.371 1.321 1.321 0 0 1 .776.711c2.29-1 4.7-2.487 6.786-2.814 3.012-.471 9.14-.533 11.252 2.224 2.6 3.39-.511 5.874-3.815 6.326-4.792.657-10.88-1.961-15.363-3.748a1.516 1.516 0 0 1-1.408-.548l-.295-.112c-5.955 5.838-12.114 11.463-18.231 16.96h.189a15.9 15.9 0 0 1 5.021-1.961c4.128-.772 8.925-.528 12.078 2.564s4.039 8.226.458 11.315c-7.169 6.183-16.434-9.244-19.843-10.045-6.213 5.524-12.745 10.647-19.369 15.656a11.389 11.389 0 0 1 2.246-.333c6.25-.267 20.446 8.04 12.421 15.072-6.993 6.128-14.031-6.73-19.16-11.365-6.239 4.665-12.509 9.294-18.62 14.124a17.169 17.169 0 0 1 9.674.563c3.477 1.242 9.038 4.18 6.554 8.787-2.526 4.686-9.256 2.145-12.74.434-1.9-.933-5.651-3.942-9.012-5.3-9.779 8.229-18.359 17.406-25.067 28.393a101.273 101.273 0 0 0-9.93 21.895C3.288 204.008.285 212.183.458 218.648c-1.763-13.015 3.477-28.263 8.85-39.536 4.94-10.365 11.987-19.324 20.107-27.3-1.623-5.838-17.4-14.956-7.424-19.784 5.3-2.552 10.322 2.4 11.185 7.411.593 3.444-.811 7.66-2.236 10.9q3.825-3.639 7.9-7.019c3.75-3.114 7.58-6.128 11.444-9.1-5.79-5.982-10.7-22.479-2.391-24.7 12.265-3.275 5.289 18.519 4.229 22.616a.66.66 0 0 1-.551-.24c.048.383.1.792.179 1.206 7.393-5.656 14.884-11.189 22.152-17a31.572 31.572 0 0 1-2.235-3.263 35.312 35.312 0 0 1-4.327-6.99c-1.74-3.977-3.29-10.264 1.994-12.279 5.748-2.2 8.046 4.944 7.864 9.122-.126 2.89-1.066 5.592-1.629 8.4-.176.876.111 4.882-1.013 3.107a8.373 8.373 0 0 1-.038 1.414q1.958-1.572 3.89-3.178a1.49 1.49 0 0 1-.083-.486 1.46 1.46 0 0 1 2.158-1.252q2.554-2.163 5.05-4.4a688.9 688.9 0 0 0 10.645-9.756c-.7-.66-.362-1.505-1.01-2.2s-1.972-1.128-2.741-1.781a19.242 19.242 0 0 1-4.584-6.243c-1.8-3.75-3.982-11.533 1.946-12.968 6.11-1.482 8.774 6.04 8.917 10.663A116.514 116.514 0 0 1 96.965 95.8c6.576-6.195 13.063-12.639 18.979-19.231-1.683-.1-6.275-3.766-7.191-4.749-2.234-2.4-5.711-7.613-1.443-10.057 3.795-2.167 8.138 1.482 9.532 4.883a46.18 46.18 0 0 1 .82 7.98c2.453-2.8 4.8-5.619 7-8.458q2.2-2.83 4.139-5.82a2.736 2.736 0 0 1-.768-.831c-6.067-1.346-13.37-11.209-6.006-14.127 3.506-1.387 7.048 2.036 8.584 4.767a34.953 34.953 0 0 1 1.067 5.477 113.062 113.062 0 0 0 9.157-20.956 1.327 1.327 0 0 1-.979-1.282c-2.883-1.832-5.156-3.351-7.06-6.685-1.183-2.071-3.262-6.77.584-7.686 5-1.191 7.706 6.423 7.915 10.116.024.429-.043 1.668-.119 2.8a1.678 1.678 0 0 1 .513.036 158.809 158.809 0 0 0 3.486-13.689c-2.644-1-2.369-15.011-.473-16.91 4.239-4.252 6.723 2.337 6.329 5.731-.465 4-2.5 7.559-4.855 10.687-.253.331-.185.318-.221-.163a.958.958 0 0 1-.26.525 60.284 60.284 0 0 1-.1 6.159 141.339 141.339 0 0 1-2.7 15.934q-.436 1.911-.965 3.786a31.461 31.461 0 0 1 6.427-3.629c3.032-1.154 7.67-2.336 10.492.043zM0 218.114a9.833 9.833 0 0 0 1.163 4.652A25.392 25.392 0 0 1 0 218.114z" class="cls-5" transform="rotate(-3 818.064 -1787.105)"/>
        <g id="Plant-Right" class="cls-6" transform="translate(1010.309 243.315)">
            <path id="Leaf-Me-Alone_" d="M77.812 275.589c-15.877-.84-34.438-12.11-34.318-29.452.087-12.6 1.773-25 1.188-37.649a101.384 101.384 0 0 0-6.082-29.527c-3.284-9.159-11.218-17.5-12.505-27.047-.821-6.086.865-14.349 3.467-19.944 3.164-6.8 1.818-6.38-2.386-12.81-8.239-12.6-15.5-25.395-20.071-39.888C.527 58.4-2.708 34.463 2.808 12.948 3.51 10.216 5.042.309 8.937.014c4.35-.33 1.755 5.156 1.334 6.972C7.585 18.573 5.216 28.7 5.715 40.8c1.924 46.711 31.739 80.487 49.123 121.788.97 2.138 2.959 7.194 4.361 10.539 2.213 5.281 3.966 15.072 7.282 19.164 6.246 7.709 1.3-6.989.225-9.809-1.363-3.567-2.877-7.365-4.327-10.517-6.616-14.6-14.037-30.562-20.873-45.615 36.873-4.42 57.683 41.538 64.355 71.015 5.5 24.286 9.261 80.113-28.05 78.22" class="cls-7" data-name="Leaf-Me-Alone!" transform="rotate(153 28.022 223.126)"/>
            <path id="Leaf-Me-Alone_2" d="M227.4 78.141c-26.543 2.106-43.584 19.621-51.516 44.118-4.275 13.2-4.765 26.764-7.141 40.331-3.574 20.412-11.264 35.88-26.292 50.423a50.747 50.747 0 0 0-10.523 14.075 59.952 59.952 0 0 0-12.15 17.363c-3.954 8.728-5.073 19.2-.508 27.9 1.228 2.339 4.29 7.035 7.464 9.168-11.883 25.307-18.416 53.024-17.68 80.706.445 16.71 1.261 33.427 2.212 50.116.256 4.481 1.716 11.881 3.907 4.366 2.006-6.874-.51-17.666-.742-24.847-1.133-34.985-2.1-66.794 12.3-99.48q2.265-5.139 4.779-10.2a3.387 3.387 0 0 0 .281-.192c.064.049.121.1.185.15.107-.19.252-.416.423-.669a9.015 9.015 0 0 0 1.293-1.813c1.277-1.77 2.723-3.85 2.731-4.988v-.031c8.915-14.553 19.127-28.3 29.557-41.786-.078.1 11.314-15.413 9.552-6.835-.849 4.134-9.228 12.006-12.612 16.384a408.184 408.184 0 0 0-23.583 34.018c-.983.565-2.372 3.339-3.376 5.4-.555 1.047-1.072 2.1-1.581 3.021 25.885 8.552 46.021-8.675 59.751-28.712.017-.023.031-.048.047-.071 4.178-5.537 8.459-11.034 13.806-15.411 8.921-7.3 18.475-8.591 28.993-12.186 28.684-9.8 40.88-46.975 44.753-74.559 4.37-31.119-17.006-78.838-54.326-75.769" class="cls-8" data-name="Leaf-Me-Alone!" transform="rotate(-21 195.098 308.148)"/>
            <path id="Leaf-Me-Alone_3" d="M114.078 2.654c-30.923 24.286-49.43 61.4-64.9 96.558-17.273 39.271-30.722 79.722-36.989 122.195-4.117 27.9-8.827 55.9-11.118 84.033a299.8 299.8 0 0 0-1.024 30.076c.016.824.454 23.2 4.533 18.576 2.32-2.632-.411-23.21-.364-26.567.267-18.907 2.353-37.7 5.1-56.394 4.518-30.782 7.917-61.561 15.354-91.817a104.886 104.886 0 0 1 3.87-13.614c1.826-4.6.061-2.73 4.091-4.088 3.916-1.32 8.4-.423 12.519-2.191 16.339-7.014 27.336-29.382 35.493-43.926 9.329-16.632 16.133-34.809 22.063-52.858a390.836 390.836 0 0 0 10.929-40.179c.922-4.3 1.579-8.838 3.032-12.988.392-1.12 1.832-3 1.933-4.021.215-2.171-.91-3.624-.762-5.453q-1.908 1.286-3.762 2.654" class="cls-8" data-name="Leaf-Me-Alone!" transform="rotate(-29 120.494 110.393)"/>
            <path id="Base" d="M38 328a84.9 84.9 0 1 0 169.8 0" class="cls-8" transform="translate(5.182 53.021)"/>
            <path id="Leaf-Me-Alone_4" d="M117.486 338.7H113a150.483 150.483 0 0 1 1.663-16.813c3.6-21.287 14.852-52.551 39.531-56.006a63.627 63.627 0 0 1 8.317.088 15 15 0 0 1 6.346-1.874c21.012-1.549 44.478 15.4 54.614 33.044 8.171 14.223 6.794 32.9 1.748 48.011-3.38 10.116-10.755 24.54-23.056 24.681-15.389.176-16.131-18.844-16.429-29.963-.4-14.783-2.263-27.66-13.912-37.736-2.715-2.347-5.682-4.412-8.424-6.727-4.294-3.623-9.039-7.333-9.592-13.327-.764-8.27 3.9-9.758 11.031-8.221 1.215.261 13.453 5.753 11.641 1.413-.553-1.326-2.574-2.377-5.124-3.164-6.6-.718-14.47-1.55-16.733-1.053-24.418 5.357-33.925 39.181-36.45 60.671a207.04 207.04 0 0 0-.685 6.976z" class="cls-7" data-name="Leaf-Me-Alone!" transform="rotate(-21 276.573 291.228)"/>
        </g>
        <g id="Plant-Left" class="cls-9" transform="translate(-118 91.835)">
            <path id="Leaf" d="M188.856 115.267c4.887-6.969 13.957-24.667 20.836-27.158 4.431-1.6 3.139 14.987 3.194 18.151.213 12.239-.978 24.4-2.45 36.538-2.651 21.888-11.319 41.381-23.209 60.011-6.118 9.586-13.294 19.288-23.233 25.269-4.575 2.754-10.08 3.216-14.6 5.589-5.262 2.763-2.4.529-4.768 6.013-3.293 7.613-4.347 17.434-5.87 25.557-7 37.289-23.933 234.41-21 272.34.261 3.362-4.427 4.166-4.661.062-1.244-21.762 9.52-172.463 14.95-221.747s10.926-92.823 16.436-109.874c6.685-20.686 18.757-45.563 28.807-64.853a229.388 229.388 0 0 1 15.568-25.898z" class="cls-7" transform="translate(18.422 14.346)"/>
            <path id="Leaf-2" d="M225.784 319.649c12.718-9.337 26.484 8.285 14.975 17.623-6.359 5.162-13.013 3.328-16.759-.972-2.431 2.963-4.706 6.061-6.892 8.678-6.66 7.974-12.955 16.138-18.971 24.492-12.5 17.356-23.208 35.692-34.406 53.693-11.05 17.762-22.013 35.619-32.031 53.837-8.486 15.433-19.8 33.59-22.7 50.509 4.408-35.884 21.134-70.374 41.052-102.008 19.756-31.374 42.428-65.638 73.018-90.4-3.113-4.578-3.199-11.114 2.714-15.452z" class="cls-10" data-name="Leaf" transform="translate(17.769 51.678)"/>
            <path id="Leaf-3" d="M2.225 244.036c7.117 1.392 18.746 17.491 24.612 23.625A229.757 229.757 0 0 1 46.1 290.86a392.376 392.376 0 0 1 34.075 55.579 516.6 516.6 0 0 1 37.914 98.668 407.023 407.023 0 0 1 11.5 64.719c.41 4.1 4.707 35.69-1.484 36.542-5.568.767-3.848-23.989-4.117-27.356-3.036-37.991-12.132-74.955-24.784-110.763-2.756-7.8-5.316-17.355-9.723-24.374-3.174-5.056-.023-3.293-5.6-5.206-4.789-1.644-10.246-1.242-15.15-3.255-10.654-4.369-19.185-12.851-26.663-21.383-14.532-16.581-26.048-34.518-32.051-55.764-3.33-11.78-6.39-23.629-8.088-35.773-.44-3.139-4.288-19.355.296-18.458z" class="cls-7" data-name="Leaf" transform="translate(0 39.777)"/>
            <path id="Leaf-4" d="M28.354 15.952c26.808 46.491 48.837 97.56 63.061 149.286 8.618 31.34 14.645 63.5 20.634 95.426 9.272 49.435 18.042 98.866 20.537 149.179 2.51 50.6 7.473 108.971-9.1 157.712 8.277-49.485.4-102.157-1-151.949-.667-23.77-2.6-47.307-5.134-70.938-2.46-22.923-6.478-45.737-10.22-68.48Q104.4 259.573 101.45 243c-.582-3.3-.828-13.084-2.92-15.337s-12.848-3.192-16.221-4.856a87.085 87.085 0 0 1-18.833-13.142C52.638 200.021 43.209 187.422 35.767 175c-17.219-28.737-24.1-63.806-23.755-97.087.067-6.462 10.459-76.043 6.285-77q.377-.441.713-.914 4.74 7.937 9.344 15.953z" class="cls-8" data-name="Leaf" transform="translate(1.956)"/>
            <path id="Leaf-5" d="M301.72 158.521c.414-.6 3.106-4.746 1.75-4.481 2.76-.54-3.8 4.576 3.081 1.437-3.265 3.084-1.381 7.09-1.337 11.241.071 6.739-1.056 13.423-2.326 20.017a137.264 137.264 0 0 1-9.33 30.253c-9.452 21.128-25.5 41.468-44.556 54.677-9.406 6.522-18.625 8.742-29.353 11.745-6.776 1.9-7.314 5.4-10.911 11.978-7.488 13.7-14.843 27.342-21.448 41.5-7.886 16.906-15.541 33.83-22.762 51.034C140.2 445.869 120.4 505.9 110.006 568.036c-.255-36.614 8.215-74.323 18.9-109.222 7.783-25.427 17.914-49.937 28.721-74.2 2.619-5.878 6.587-13.439 7.7-19.928.779-4.547-1.6-8.919-2.692-13.709-4.249-18.652-3.945-39.548-.214-58.3 4.114-20.677 16.012-30.274 36.139-33.2 7.361-1.071 16.717-.679 23.466-3.817 7.354-3.418 10.387-14.652 14.569-21.863a297.345 297.345 0 0 1 39.9-54.272 129.43 129.43 0 0 1 13.646-12.555c3.05-2.441 9.499-5.445 11.579-8.449z" class="cls-8" data-name="Leaf" transform="translate(17.932 25.105)"/>
            <path id="Base-2" d="M81.607 476h71.429a5.815 5.815 0 0 1 5.753 6.663l-5.521 37.437a23.26 23.26 0 0 1-23.012 19.867h-25.87A23.26 23.26 0 0 1 81.375 520.1l-5.521-37.436A5.815 5.815 0 0 1 81.607 476z" class="cls-10" data-name="Base" transform="translate(12.356 77.599)"/>
        </g>
        <g id="Maceta" transform="translate(17.798 608.217)">
            <path id="Base-3" d="M15.418 48.456c0 24.758 1.954 44.828 28.178 44.828s28.178-20.07 28.178-44.828" class="cls-3" data-name="Base" transform="translate(2.513 7.899)"/>
            <path id="Fill-27" d="M53.91 40.908a51.831 51.831 0 0 0-2.575 5.078 69.483 69.483 0 0 1 .7-10.732c.915-6.2 2.312-12.364 3.624-18.52.943-4.424.884-12.371 4.464-15.9.982-.762 1.218.733 1.218 1.382.012.137 0-2.648-.956-2.163-5.665 2.926-7.5 12.125-9.314 16.731a88.639 88.639 0 0 0-5.824 20.59 46.121 46.121 0 0 0-.391 5.3c-.193-.472-.373-.947-.573-1.417A95.624 95.624 0 0 0 31.1 19.206C29.748 17.508 12.717.755 11.383 3.32a1.768 1.768 0 0 0 .827.927c.025.028.025.012.011-.029 1 1.616 3.844 4.111 4.73 5.527A106.944 106.944 0 0 1 22.674 20.8c3.72 7.838 7.171 15.755 10.517 23.688a235.801 235.801 0 0 0 2.419 5.517c-8.539-12.316-19.93-23.5-35.61-29.9 5.356 2.725 8.867 7.851 12.484 11.776 4.362 4.734 8.957 9.341 13.327 14.07C30.966 51.53 37.031 57.4 41.99 63.578c4.8 10.083 9.47 20.177 12.351 30.777-1.18-3.662-.092-8.723-.295-12.566a84.9 84.9 0 0 0-1.008-9.122 18.73 18.73 0 0 1 1.364 4 255.255 255.255 0 0 0-.732-6.36c.686-1.974 1.359-3.815 1.814-5.332a137 137 0 0 1 8.888-22.885 204.3 204.3 0 0 1 11.884-20.3c2.04-3.077 4.107-6.143 6.162-9.214 1.345-2.011 2.625-5.23 4.5-7.156C74.813 16.485 61.589 27.63 53.91 40.908" class="cls-3"/>
        </g>
        <g id="Top-Leaves" transform="translate(556.277 .269)">
            <path id="Leaf-6" d="M92.414 151.092c.277-12.079-4.672-23.212-10.15-33.718C71.6 96.92 66.267 84.683 67.99 60.391 69 46.1 70.216 31.009 62.924 18.036 57.615 8.588 46.478-1.518 34.717.19 16.1 4.431 5.708 22.169 1.724 39.782c-4.938 21.83.716 38.117 17.2 52.1 9.289 7.879 14.528 16 17.062 28 2.027 9.6 1.451 20.6 4.918 29.829 5.184 13.8 14.542 22.221 28.62 24.783-5.08-27.345-12.216-55.6-23.659-80.951-1.027-2.509-8.409-13.232-5.337-15.94 3.383-2.982 8.967 14.163 8.923 14.056 3.244 7.619 5.98 15.484 8.611 23.383h-.044q4.073 12.165 7.889 24.55c.982 3.46 1.9 6.94 2.717 10.466 1.2 5.174 1.34 18.8 4.737 22.848a7.325 7.325 0 0 0 2.212 1.845c1.361 5.706 2.631 11.424 3.744 17.155 2.906 14.966 4.587 30.316 2.7 45.535-.55 4.442-6.2 19.889-4.329 23.833 3.423 7.213 5.348-3.91 6.078-7.219 6.04-27.4 3.857-53.13-2.733-79.959 6.058-4.173 11.266-18.112 11.379-23.006" class="cls-3" data-name="Leaf" transform="rotate(-18 147.685 -348.896)"/>
            <path id="Leaf-7" d="M37.717 128.864c-8.841-1.293-17.186-12.467-21.3-19.917-5.1-9.219-8.649-19.738-11.326-29.864C.676 62.4.08 43.885.026 26.8.019 24.741-.411-.408 2.53.005 5.443.414 3.6 26.517 3.846 31.923c.529 11.536-.262 22.912 2.444 34.3a108.727 108.727 0 0 0 14.427 33.095c.833 1.307 2.6 6.168 4.6 5.045 1.959-1.1-3.467-7.573-4.238-8.831a111.514 111.514 0 0 1-8.231-16.353 86.173 86.173 0 0 1-6.438-33.09C13.138 45.055 19 49 21.257 55.56c1.95 5.674 2.14 12.275 4.355 17.64a26.171 26.171 0 0 0 6.92 9.486c7.828 7 16 8.749 18.335 20.363 1.829 9.105-.442 27.664-13.15 25.814" class="cls-3" data-name="Leaf" transform="rotate(122 41.902 149.703)"/>
            <path id="Leaf-Me-Alone_5" d="M2.735 18.608H0a91.273 91.273 0 0 0 1.028 10.369c2.2 12.866 9.074 31.762 24.152 33.85a39.294 39.294 0 0 0 5.081-.053 9.235 9.235 0 0 0 3.877 1.132c12.837.937 27.173-9.306 33.362-19.971 4.992-8.6 4.151-19.885 1.068-29.018C66.507 8.8 62 .086 54.486 0c-9.4-.106-9.855 11.389-10.037 18.11-.242 8.934-1.383 16.718-8.5 22.808-1.659 1.419-3.472 2.667-5.147 4.066-2.623 2.19-5.522 4.432-5.86 8.055-.467 5 2.385 5.9 6.74 4.969.742-.158 8.219-3.477 7.112-.854-.338.8-1.572 1.437-3.131 1.912-4.032.434-8.84.937-10.223.636C10.522 56.464 4.713 36.021 3.171 23.033a123.125 123.125 0 0 1-.436-4.425z" class="cls-3" data-name="Leaf-Me-Alone!" transform="rotate(180 35.533 55.669)"/>
        </g>
    </g>
</svg>
