<svg xmlns="http://www.w3.org/2000/svg" width="1044" height="402.518" viewBox="0 0 1044 402.518">
    <defs>
        <style>
            .cls-1{fill:#915b3c}.cls-1,.cls-12,.cls-13,.cls-14,.cls-15,.cls-2,.cls-3,.cls-4,.cls-5,.cls-7,.cls-8,.cls-9{fill-rule:evenodd}.cls-2{fill:#ffc107}.cls-3{fill:#b28b67}.cls-4{fill:#191847}.cls-5{fill:#12a2b4}.cls-11,.cls-21,.cls-6{fill:none}.cls-10,.cls-6{stroke:#252525}.cls-10,.cls-11,.cls-6{stroke-width:4px}.cls-7{fill:#393939}.cls-9{fill:#e2ab09}.cls-10,.cls-12{fill:#252525}.cls-11{stroke:#d0d0d0}.cls-13{fill:#00bcd4}.cls-14{fill:#dde3e9}.cls-15{fill:rgba(0,0,0,.1)}.cls-16{fill:#9c9ca1}.cls-17{fill:#939498}.cls-18{opacity:.4}.cls-19{fill:#707070}.cls-20{stroke:none}
        </style>
    </defs>
    <g id="Group_263" data-name="Group 263" transform="translate(-123 -1047.482)">
        <g id="Head_Front_Rad" data-name="Head/Front/Rad" transform="rotate(22.03 -2318.54 2268.06)">
            <g id="Head" transform="translate(53.971 30.122)">
                <path id="Path_311" d="M7.477 31.21C3.307 26.316.485 20.318.956 13.6 2.315-5.769 29.273-1.509 34.516 8.265s4.621 34.567-2.156 36.314c-2.7.7-8.46-1.01-14.32-4.542l3.678 26.021H0z" class="cls-1" data-name="Path 311"/>
            </g>
            <path id="hair" d="M52.853 29.951a6.788 6.788 0 0 1 1.415 2.629 26.6 26.6 0 0 1 .906 2.986c.456 2.035.46 4.376-.992 5.956a6.83 6.83 0 0 1-4.524 1.959 8.314 8.314 0 0 1-3.208-.407c-1.022-.336-1.9-1.005-2.893-1.421a12.945 12.945 0 0 1-1.526 6.361 6.342 6.342 0 0 1-4.722 3.086 9.363 9.363 0 0 1-5.753-1.159c-.447-.242-.89-.5-1.314-.782a3.684 3.684 0 0 0-1.141-.627c-.464-.109-.695.159-1 .5a7.572 7.572 0 0 1-1.175 1.057 6.92 6.92 0 0 1-6.471 1.111 6.017 6.017 0 0 1-2.64-1.908c-.6-.79-1.032-2.043-1.863-2.594-.353-.234-.6.076-.923.3-.482.344-.943.723-1.431 1.058a6.553 6.553 0 0 1-2.224 1.005c-1.164.269-2.773.206-3.106-1.318a6.293 6.293 0 0 1 .011-1.762c.055-.792.113-1.584.182-2.375a17.151 17.151 0 0 1 .232-1.771 2.591 2.591 0 0 0 .115-1.215c-.168-.394-.946-.17-1.278-.184a5.052 5.052 0 0 1-1.922-.423 2.068 2.068 0 0 1-1.163-1.076 1.933 1.933 0 0 1-.032-1.012 3.018 3.018 0 0 0-.062-1.038c-.881.434-3.936 1.4-4.32-.181a2.471 2.471 0 0 1 .386-1.564 13.555 13.555 0 0 1 1.424-2.167A19.376 19.376 0 0 1 5.632 29.3a2.485 2.485 0 0 1-.648-4.162 3.079 3.079 0 0 1 2.261-.656 5 5 0 0 0 .935.074 2.235 2.235 0 0 1 .424-.143 12.6 12.6 0 0 1 3.468.44 11.434 11.434 0 0 1 5.289 2.766 1.631 1.631 0 0 0 1.223.562c.455 0 .9-.129 1.356-.141a9.765 9.765 0 0 1 3.4.948 12.84 12.84 0 0 1 1.115-4.527c.5-1.107 1.554-1.267 2.586-1.364 3.3-.311 6.615.036 9.921.031-3.2-.723-6.507-1.021-9.679-1.873-1.434-.385-.339-1.351.274-2.021a11.646 11.646 0 0 0 2.28-3.91c1.565 2.041 4.332 3.385 6.784 2.758 2.709-.693 4.616-4.355 2.884-6.989-1.005-1.527-2.819-2.117-4.33-2.774 1.179-1.225 1.464-3.035 2.173-4.56a3.263 3.263 0 0 1 1.624-1.864 1.9 1.9 0 0 0 .857-.341c.283-.292.35-.619.712-.87a4.013 4.013 0 0 1 4.972.383 3.245 3.245 0 0 1-.11 4.254c1.536.64 4.335 1.464 3.725 3.858 3.329.221 11.412 5.62 6.944 9.566 2.452 1.386 4.7 4.773 3.13 7.758-1.213 2.3-4.034 3.327-6.348 3.449" class="cls-2" transform="rotate(180 49.156 33.611)"/>
        </g>
        <g id="Head_Front_Airy" data-name="Head/Front/Airy" transform="translate(898.15 1054.482)">
            <g id="Head-2" data-name="Head" transform="translate(41.849 27.246)">
                <path id="Path_310" d="M7.446 31.083C3.293 26.209.483 20.235.952 13.541 2.306-5.745 29.153-1.5 34.375 8.232s4.6 34.426-2.148 36.165c-2.692.694-8.426-1.006-14.262-4.523l3.663 25.915H0z" class="cls-3" data-name="Path 310"/>
            </g>
            <path id="hair-2" d="M63.9 24.259c-2.851-.467-10.526-.789-11.942-.789-.9 0-1.885.207-2.421-.624-.439-.68-.278-1.83-.409-2.62-.152-.917-.368-1.822-.586-2.725a27.7 27.7 0 0 0-2.877-7.308A22.462 22.462 0 0 0 35.015.555a34.189 34.189 0 0 0-16.164-2.224C13.049-1.2 7.8.717 2.32 2.519a34.644 34.644 0 0 1-16.146 1.555c-5.5-.845-9.657-3.826-14.3-6.656-4.75-2.9-10.177-4.791-15.792-4.356A30.414 30.414 0 0 0-58.32-1.476c-4.055 2.7-7.4 5.959-9.29 10.539-2.032 4.927-2.03 10.337 1.31 14.689 4.844 6.311 13.836 7.944 21.317 7.781a40.728 40.728 0 0 0 12.662-2.32c5.448-1.916 10.157-5.164 15.254-7.8A39.693 39.693 0 0 1-9.61 18.43c2.515-.71 4.992-1.036 7.269.483A34.328 34.328 0 0 0 4.983 23.1a23.617 23.617 0 0 0 8.26 1.483c5.48-.042 10.882-1.75 16.2-2.893 4.34-.932 8.984-1.862 13.409-.965 1.846.374 4.543 1.146 5.21 3.065C36.842 25.829 32.434 39.71 35.6 49.9c1.708 5.5 11.974 11.929 15.965 9.038 2.529-1.832.994-4.237 0-5.824-1.9-3.04-2.554-6.945.967-9.062 3.037-1.826 6.23 2.51 6.29 2.5.835-.066 8.047-4.145 13.016-10.1 4.9.291 5.646-2.942 4.475-5.585s-8.478-5.962-12.413-6.608z" class="cls-4" data-name="hair"/>
        </g>
        <g id="Group_261" data-name="Group 261" transform="rotate(-97 992.726 185.22)">
            <path id="Skin" d="M47.436 0L19.881 20.38A73.872 73.872 0 0 0 1.15 27.961c-1.184 1.087-2.616 3.289 2.3 2.908S13.542 30.311 14.22 32s-2.295 3.7-.92 5.981q1.37 2.277 12.946-11.419l27.287-11.4z" class="cls-3" transform="scale(-1) rotate(53 92.33 -148.691)"/>
            <path id="Coat-Back" d="M0 1.9L7.242 0c29.328 21.061 44.473 65.126 80 86.062l-7.179 10.63C21.43 94.621 2.246 40.935 0 1.9z" class="cls-5" transform="rotate(6 5.054 96.427)"/>
        </g>
        <path id="Line_41" d="M0 26L56 0" class="cls-6" data-name="Line 41" transform="translate(973.5 1381.5)"/>
        <g id="Group_254" data-name="Group 254">
            <path id="Leg" d="M0 0l55.521 92.822 41.625 78.473h8.966L36.369 0z" class="cls-1" transform="rotate(-14.98 5069.897 -2064.183)"/>
            <g id="Accessories_Shoe_Flat-Sneaker" data-name="Accessories/Shoe/Flat-Sneaker" transform="rotate(-14.98 5643.733 -2489.054)">
                <path id="shoe" d="M1.254 4.535A16.044 16.044 0 0 0 0 9.544a37.492 37.492 0 0 0 .673 5.9h42.144q1.643-5.431-1.9-5.864T35.04 8.8L15.452.065a.747.747 0 0 0-.987.378l-.008.019L13.2 3.517a13.438 13.438 0 0 1-5.327 1.529A12.059 12.059 0 0 1 3.276 3.7a1.494 1.494 0 0 0-1.981.736q-.022.049-.041.099z" class="cls-7"/>
            </g>
            <path id="Pant" d="M94.818 158.729l17.29-5.23q-11.363-33.969-27.854-74.763T48.834 0H0a767.956 767.956 0 0 0 44.624 87.217 590.333 590.333 0 0 0 50.194 71.512z" class="cls-8" transform="rotate(-14.98 5074.525 -2029.143)"/>
        </g>
        <path id="Line_39" d="M0 28L64 0" class="cls-6" data-name="Line 39" transform="translate(506.5 1380.5)"/>
        <g id="Head_Front_Short-1" data-name="Head/Front/Short-1" transform="rotate(16 -3441.154 2113.14)">
            <g id="Head-3" data-name="Head" transform="translate(56.304 31.915)">
                <path id="Path_262" d="M7.674 32.033C3.394 27.01.5 20.853.981 13.955 2.376-5.921 30.044-1.548 35.426 8.483s4.742 35.478-2.213 37.271c-2.774.715-8.683-1.036-14.7-4.662L22.29 67.8H0z" class="cls-3" data-name="Path 262"/>
            </g>
            <path id="Hair-3" d="M81.9 41.853c-3.025 1.692-5.178 4.863-7.769 9.021a5.573 5.573 0 0 0-5.931 9.175 84.35 84.35 0 0 1-4.39 5.683c-6.179-3.707-10.775-14.513-4.875-24.944 5.076-20.894 33.841-7.925 39.376-11.449 1.207 7.582-2.694 13.696-16.411 12.514z" class="cls-4" data-name="Hair"/>
        </g>
        <g id="Group_238" data-name="Group 238" transform="translate(-20.818 5.587)">
            <path id="Skin-2" d="M133.664 0l27.223 19.892a73.487 73.487 0 0 1 18.506 7.4c1.17 1.061 2.584 3.21-2.269 2.838s-9.974-.545-10.644 1.1 2.267 3.617.914 5.839q-1.354 2.222-12.79-11.145L127.646 14.8z" class="cls-3" data-name="Skin" transform="rotate(10.02 -6691.476 1675.892)"/>
            <path id="Coat-Back-2" d="M0 1.9L7.242 0c29.328 21.061 44.473 65.126 80 86.063l-7.179 10.63C21.43 94.621 2.246 40.935 0 1.9z" class="cls-9" data-name="Coat-Back" transform="rotate(8 -7969.247 2464.795)"/>
        </g>
        <g id="Group_251" data-name="Group 251" transform="translate(449)">
            <path id="Skin-3" d="M133.664 0l27.223 19.892a73.487 73.487 0 0 1 18.506 7.4c1.17 1.061 2.584 3.21-2.269 2.838s-9.974-.545-10.644 1.1 2.267 3.617.914 5.839q-1.354 2.222-12.79-11.145L127.646 14.8z" class="cls-3" data-name="Skin" transform="rotate(10.02 -6691.476 1675.892)"/>
            <path id="Coat-Back-3" d="M0 1.9L7.242 0c29.328 21.061 44.473 65.126 80 86.063l-7.179 10.63C21.43 94.621 2.246 40.935 0 1.9z" class="cls-5" data-name="Coat-Back" transform="rotate(8 -7969.247 2464.795)"/>
        </g>
        <g id="Group_246" data-name="Group 246" transform="rotate(-51.98 385.513 931.643)">
            <path id="Skin-4" d="M133.664 0l27.223 19.892a73.487 73.487 0 0 1 18.506 7.4c1.17 1.061 2.584 3.21-2.269 2.838s-9.974-.545-10.644 1.1 2.267 3.617.914 5.839q-1.354 2.222-12.79-11.145L127.646 14.8z" class="cls-3" data-name="Skin" transform="rotate(10.02 -6691.476 1675.892)"/>
            <path id="Coat-Back-4" d="M0 1.9L7.242 0c29.328 21.061 44.473 65.126 80 86.063l-7.179 10.63C21.43 94.621 2.246 40.935 0 1.9z" class="cls-8" data-name="Coat-Back" transform="rotate(8 -7969.247 2464.795)"/>
        </g>
        <path id="Line_38" d="M0 28L61 0" class="cls-6" data-name="Line 38" transform="translate(279.5 1379.5)"/>
        <g id="Group_240" data-name="Group 240">
            <path id="Leg-2" d="M88.3 0c-16.254 13.261-9.849 129.8-10.933 131.262q-.723.977-77.367 16.5l2.223 9.023q89.68-4.294 94.895-10.95 7.467-9.53 18.306-106.716z" class="cls-3" data-name="Leg" transform="rotate(-54.97 1330.386 467.436)"/>
            <path id="Pant-2" d="M0 144.245l3.913 14.532c44.58 5.206 73.95-1.084 84.274-10.916q10.324-9.832 18.354-106.426L77.528 0C38.829 29.2 62.1 125.08 61.116 127.271S36.627 131.153 0 144.245z" class="cls-5" data-name="Pant" transform="rotate(-54.97 1324.537 458.088)"/>
            <g id="Accessories_Shoe_Flat-Sneaker-2" data-name="Accessories/Shoe/Flat-Sneaker" transform="rotate(2 -38883.264 9251.958)">
                <path id="shoe-2" d="M1.432 5.18A18.325 18.325 0 0 0 0 10.9a42.823 42.823 0 0 0 .769 6.737H48.9q1.876-6.2-2.166-6.7t-6.716-.893L17.649.074a.853.853 0 0 0-1.127.432l-.01.022-1.438 3.489a15.348 15.348 0 0 1-6.082 1.746 13.774 13.774 0 0 1-5.25-1.536 1.707 1.707 0 0 0-2.263.84q-.025.056-.047.113z" class="cls-7" data-name="shoe"/>
            </g>
        </g>
        <g id="Group_260" data-name="Group 260" transform="translate(690)">
            <path id="Leg-3" d="M88.3 0c-16.254 13.261-9.849 129.8-10.933 131.262q-.723.977-77.367 16.5l2.223 9.023q89.68-4.294 94.895-10.95 7.467-9.53 18.306-106.716z" class="cls-3" data-name="Leg" transform="rotate(-54.97 1330.386 467.436)"/>
            <path id="Pant-3" d="M0 144.245l3.913 14.532c44.58 5.206 73.95-1.084 84.274-10.916q10.324-9.832 18.354-106.426L77.528 0C38.829 29.2 62.1 125.08 61.116 127.271S36.627 131.153 0 144.245z" class="cls-9" data-name="Pant" transform="rotate(-54.97 1324.537 458.088)"/>
            <g id="Accessories_Shoe_Flat-Sneaker-3" data-name="Accessories/Shoe/Flat-Sneaker" transform="rotate(2 -38883.264 9251.958)">
                <path id="shoe-3" d="M1.432 5.18A18.325 18.325 0 0 0 0 10.9a42.823 42.823 0 0 0 .769 6.737H48.9q1.876-6.2-2.166-6.7t-6.716-.893L17.649.074a.853.853 0 0 0-1.127.432l-.01.022-1.438 3.489a15.348 15.348 0 0 1-6.082 1.746 13.774 13.774 0 0 1-5.25-1.536 1.707 1.707 0 0 0-2.263.84q-.025.056-.047.113z" class="cls-7" data-name="shoe"/>
            </g>
        </g>
        <g id="Group_244" data-name="Group 244" transform="translate(227)">
            <path id="Leg-4" d="M88.3 0c-16.254 13.261-9.849 129.8-10.933 131.262q-.723.977-77.367 16.5l2.223 9.023q89.68-4.294 94.895-10.95 7.467-9.53 18.306-106.716z" class="cls-3" data-name="Leg" transform="rotate(-54.97 1330.386 467.436)"/>
            <path id="Pant-4" d="M0 144.245l3.913 14.532c44.58 5.206 73.95-1.084 84.274-10.916q10.324-9.832 18.354-106.426L77.528 0C38.829 29.2 62.1 125.08 61.116 127.271S36.627 131.153 0 144.245z" class="cls-9" data-name="Pant" transform="rotate(-54.97 1324.537 458.088)"/>
            <g id="Accessories_Shoe_Flat-Sneaker-4" data-name="Accessories/Shoe/Flat-Sneaker" transform="rotate(2 -38883.264 9251.958)">
                <path id="shoe-4" d="M1.432 5.18A18.325 18.325 0 0 0 0 10.9a42.823 42.823 0 0 0 .769 6.737H48.9q1.876-6.2-2.166-6.7t-6.716-.893L17.649.074a.853.853 0 0 0-1.127.432l-.01.022-1.438 3.489a15.348 15.348 0 0 1-6.082 1.746 13.774 13.774 0 0 1-5.25-1.536 1.707 1.707 0 0 0-2.263.84q-.025.056-.047.113z" class="cls-7" data-name="shoe"/>
            </g>
        </g>
        <g id="Ellipse_46" class="cls-6" data-name="Ellipse 46" transform="translate(291 1369)">
            <circle cx="21.5" cy="21.5" r="21.5" class="cls-20"/>
            <circle cx="21.5" cy="21.5" r="19.5" class="cls-21"/>
        </g>
        <g id="Ellipse_48" class="cls-6" data-name="Ellipse 48" transform="translate(522 1369)">
            <circle cx="21.5" cy="21.5" r="21.5" class="cls-20"/>
            <circle cx="21.5" cy="21.5" r="19.5" class="cls-21"/>
        </g>
        <g id="Ellipse_49" class="cls-6" data-name="Ellipse 49" transform="translate(753 1369)">
            <circle cx="21.5" cy="21.5" r="21.5" class="cls-20"/>
            <circle cx="21.5" cy="21.5" r="19.5" class="cls-21"/>
        </g>
        <g id="Ellipse_51" class="cls-6" data-name="Ellipse 51" transform="translate(985 1369)">
            <circle cx="21.5" cy="21.5" r="21.5" class="cls-20"/>
            <circle cx="21.5" cy="21.5" r="19.5" class="cls-21"/>
        </g>
        <g id="Ellipse_44" class="cls-6" data-name="Ellipse 44" transform="translate(123 1331)">
            <circle cx="59.5" cy="59.5" r="59.5" class="cls-20"/>
            <circle cx="59.5" cy="59.5" r="57.5" class="cls-21"/>
        </g>
        <g id="Ellipse_45" class="cls-6" data-name="Ellipse 45" transform="translate(354 1331)">
            <circle cx="59.5" cy="59.5" r="59.5" class="cls-20"/>
            <circle cx="59.5" cy="59.5" r="57.5" class="cls-21"/>
        </g>
        <g id="Ellipse_47" class="cls-6" data-name="Ellipse 47" transform="translate(585 1331)">
            <circle cx="59.5" cy="59.5" r="59.5" class="cls-20"/>
            <circle cx="59.5" cy="59.5" r="57.5" class="cls-21"/>
        </g>
        <g id="Ellipse_50" class="cls-6" data-name="Ellipse 50" transform="translate(816 1331)">
            <circle cx="59.5" cy="59.5" r="59.5" class="cls-20"/>
            <circle cx="59.5" cy="59.5" r="57.5" class="cls-21"/>
        </g>
        <g id="Ellipse_52" class="cls-6" data-name="Ellipse 52" transform="translate(1048 1331)">
            <circle cx="59.5" cy="59.5" r="59.5" class="cls-20"/>
            <circle cx="59.5" cy="59.5" r="57.5" class="cls-21"/>
        </g>
        <path id="Path_240" d="M-3340.556 3938.483c-.263-.5-180.085 109.446-180.085 109.446h131.306s49.042-108.941 48.779-109.446z" class="cls-6" data-name="Path 240" transform="translate(3702 -2656)"/>
        <path id="Path_241" d="M-3288.59 4047.929l-51.824-109.4" class="cls-10" data-name="Path 241" transform="translate(3702 -2656)"/>
        <path id="Path_246" d="M-3288.59 4047.929l-51.824-109.4" class="cls-6" data-name="Path 246" transform="translate(3933 -2656)"/>
        <path id="Path_253" d="M-3288.59 4047.929l-51.824-109.4" class="cls-6" data-name="Path 253" transform="translate(4164 -2656)"/>
        <path id="Path_258" d="M-3288.59 4047.929l-51.824-109.4" class="cls-6" data-name="Path 258" transform="translate(4396 -2656)"/>
        <path id="Path_242" d="M-3340.555 3917.558v21.184" class="cls-6" data-name="Path 242" transform="translate(3702 -2656)"/>
        <path id="Path_249" d="M-3340.555 3917.558v21.184" class="cls-6" data-name="Path 249" transform="translate(3933 -2656)"/>
        <path id="Path_254" d="M-3340.555 3917.558v21.184" class="cls-6" data-name="Path 254" transform="translate(4164 -2656)"/>
        <path id="Path_259" d="M-3340.555 3917.558v21.184" class="cls-6" data-name="Path 259" transform="translate(4396 -2656)"/>
        <path id="Path_243" d="M-3468.528 3955.661l78.531 91.922" class="cls-6" data-name="Path 243" transform="translate(3702 -2656)"/>
        <path id="Path_247" d="M-3468.528 3955.661l78.531 91.922" class="cls-6" data-name="Path 247" transform="translate(3933 -2656)"/>
        <path id="Path_252" d="M-3468.528 3955.661l78.531 91.922" class="cls-11" data-name="Path 252" transform="translate(4164 -2656)"/>
        <path id="Path_257" d="M-3468.528 3955.661l78.531 91.922" class="cls-6" data-name="Path 257" transform="translate(4396 -2656)"/>
        <g id="Rectangle_111" class="cls-6" data-name="Rectangle 111">
            <path d="M0 0h63v17H0z" class="cls-20" transform="translate(173 1285)"/>
            <path d="M2 2h59v13H2z" class="cls-21" transform="translate(173 1285)"/>
        </g>
        <g id="Rectangle_112" class="cls-6" data-name="Rectangle 112">
            <path d="M0 0h63v17H0z" class="cls-20" transform="translate(404 1285)"/>
            <path d="M2 2h59v13H2z" class="cls-21" transform="translate(404 1285)"/>
        </g>
        <g id="Rectangle_113" class="cls-6" data-name="Rectangle 113">
            <path d="M0 0h63v17H0z" class="cls-20" transform="translate(635 1285)"/>
            <path d="M2 2h59v13H2z" class="cls-21" transform="translate(635 1285)"/>
        </g>
        <g id="Rectangle_114" class="cls-6" data-name="Rectangle 114">
            <path d="M0 0h63v17H0z" class="cls-20" transform="translate(867 1285)"/>
            <path d="M2 2h59v13H2z" class="cls-21" transform="translate(867 1285)"/>
        </g>
        <path id="Path_250" d="M-3324.461 3908.632h-42.926s-18.6-5.226-18.512-32.338" class="cls-6" data-name="Path 250" transform="translate(3933 -2656)"/>
        <path id="Path_255" d="M-3324.461 3908.632h-42.926s-18.6-5.226-18.512-32.338" class="cls-11" data-name="Path 255" transform="translate(4164 -2656)"/>
        <path id="Path_260" d="M-3324.461 3908.632h-42.926s-18.6-5.226-18.512-32.338" class="cls-6" data-name="Path 260" transform="translate(4396 -2656)"/>
        <path id="Line_40" d="M0 28L64 0" class="cls-6" data-name="Line 40" transform="translate(741.5 1379.5)"/>
        <path id="Path_245" d="M-3340.556 3938.483c-.263-.5-180.085 109.446-180.085 109.446h131.306s49.042-108.941 48.779-109.446z" class="cls-6" data-name="Path 245" transform="translate(3702 -2656)"/>
        <path id="Path_248" d="M-3340.556 3938.483c-.263-.5-180.085 109.446-180.085 109.446h131.306s49.042-108.941 48.779-109.446z" class="cls-6" data-name="Path 248" transform="translate(3933 -2656)"/>
        <path id="Path_251" d="M-3340.556 3938.483c-.263-.5-180.085 109.446-180.085 109.446h131.306s49.042-108.941 48.779-109.446z" class="cls-6" data-name="Path 251" transform="translate(4164 -2656)"/>
        <g id="Group_253" data-name="Group 253" transform="rotate(9 694.418 1215.266)">
            <path id="Leg-5" d="M0 0l55.521 92.822 41.625 78.473h8.966l-3.616-8.881L36.369 0z" class="cls-1" data-name="Leg" transform="rotate(-14.98 5055.257 -1923.248)"/>
            <g id="Accessories_Shoe_Flat-Sneaker-5" data-name="Accessories/Shoe/Flat-Sneaker" transform="rotate(-14.98 5629.093 -2348.12)">
                <path id="shoe-5" d="M1.254 4.535A16.044 16.044 0 0 0 0 9.544a37.492 37.492 0 0 0 .673 5.9h42.144q1.643-5.431-1.9-5.864T35.04 8.8L15.452.065a.747.747 0 0 0-.987.378l-.008.019L13.2 3.517a13.438 13.438 0 0 1-5.327 1.529A12.059 12.059 0 0 1 3.276 3.7a1.494 1.494 0 0 0-1.981.736q-.022.049-.041.099z" class="cls-12" data-name="shoe"/>
            </g>
            <path id="Pant-5" d="M94.818 158.729l17.29-5.23q-11.363-33.969-27.854-74.763T48.834 0L6.512 3.527c14.031 32 22.393 57.541 38.112 83.69a590.333 590.333 0 0 0 50.194 71.512z" class="cls-12" data-name="Pant" transform="rotate(-14.98 5059.884 -1888.208)"/>
        </g>
        <path id="Path_256" d="M-3340.556 3938.483c-.263-.5-180.085 109.446-180.085 109.446h131.306s49.042-108.941 48.779-109.446z" class="cls-6" data-name="Path 256" transform="translate(4396 -2656)"/>
        <g id="Group_239" data-name="Group 239">
            <path id="Leg-6" d="M74 27.977C57.744 41.238 78.451 129.8 77.367 131.262q-.723.977-77.367 16.5l2.223 9.023q89.68-4.294 94.895-10.95 7.467-9.53 18.306-106.716z" class="cls-3" data-name="Leg" transform="rotate(-45.97 1589.026 464.989)"/>
            <path id="Pant-6" d="M0 144.245l3.913 14.532c44.58 5.206 73.95-1.084 84.274-10.916q10.324-9.832 18.354-106.426L64.322 17.878c-38.7 29.2-2.22 107.2-3.206 109.393S36.627 131.153 0 144.245z" class="cls-13" data-name="Pant" transform="rotate(-45.97 1583.001 453.43)"/>
            <g id="Accessories_Shoe_Flat-Sneaker-6" data-name="Accessories/Shoe/Flat-Sneaker" transform="rotate(29 -2538.933 1182.273)">
                <path id="shoe-6" d="M1.432 5.18A18.325 18.325 0 0 0 0 10.9a42.823 42.823 0 0 0 .769 6.737H48.9q1.876-6.2-2.166-6.7t-6.716-.893L17.649.074a.853.853 0 0 0-1.127.432l-.01.022-1.438 3.489a15.348 15.348 0 0 1-6.082 1.746 13.774 13.774 0 0 1-5.25-1.536 1.707 1.707 0 0 0-2.263.84q-.025.056-.047.113z" class="cls-12" data-name="shoe"/>
            </g>
        </g>
        <g id="Group_259" data-name="Group 259" transform="translate(690)">
            <path id="Leg-7" d="M74 27.977C57.744 41.238 78.451 129.8 77.367 131.262q-.723.977-77.367 16.5l2.223 9.023q89.68-4.294 94.895-10.95 7.467-9.53 18.306-106.716z" class="cls-3" data-name="Leg" transform="rotate(-45.97 1589.026 464.989)"/>
            <path id="Pant-7" d="M0 144.245l3.913 14.532c44.58 5.206 73.95-1.084 84.274-10.916q10.324-9.832 18.354-106.426L64.322 17.878c-38.7 29.2-2.22 107.2-3.206 109.393S36.627 131.153 0 144.245z" class="cls-2" data-name="Pant" transform="rotate(-45.97 1583.001 453.43)"/>
            <g id="Accessories_Shoe_Flat-Sneaker-7" data-name="Accessories/Shoe/Flat-Sneaker" transform="rotate(29 -2538.933 1182.273)">
                <path id="shoe-7" d="M1.432 5.18A18.325 18.325 0 0 0 0 10.9a42.823 42.823 0 0 0 .769 6.737H48.9q1.876-6.2-2.166-6.7t-6.716-.893L17.649.074a.853.853 0 0 0-1.127.432l-.01.022-1.438 3.489a15.348 15.348 0 0 1-6.082 1.746 13.774 13.774 0 0 1-5.25-1.536 1.707 1.707 0 0 0-2.263.84q-.025.056-.047.113z" class="cls-12" data-name="shoe"/>
            </g>
        </g>
        <g id="Group_243" data-name="Group 243" transform="translate(227)">
            <path id="Leg-8" d="M74 27.977C57.744 41.238 78.451 129.8 77.367 131.262q-.723.977-77.367 16.5l2.223 9.023q89.68-4.294 94.895-10.95 7.467-9.53 18.306-106.716z" class="cls-3" data-name="Leg" transform="rotate(-45.97 1589.026 464.989)"/>
            <path id="Pant-8" d="M0 144.245l3.913 14.532c44.58 5.206 73.95-1.084 84.274-10.916q10.324-9.832 18.354-106.426L64.322 17.878c-38.7 29.2-2.22 107.2-3.206 109.393S36.627 131.153 0 144.245z" class="cls-2" data-name="Pant" transform="rotate(-45.97 1583.001 453.43)"/>
            <g id="Accessories_Shoe_Flat-Sneaker-8" data-name="Accessories/Shoe/Flat-Sneaker" transform="rotate(29 -2538.933 1182.273)">
                <path id="shoe-8" d="M1.432 5.18A18.325 18.325 0 0 0 0 10.9a42.823 42.823 0 0 0 .769 6.737H48.9q1.876-6.2-2.166-6.7t-6.716-.893L17.649.074a.853.853 0 0 0-1.127.432l-.01.022-1.438 3.489a15.348 15.348 0 0 1-6.082 1.746 13.774 13.774 0 0 1-5.25-1.536 1.707 1.707 0 0 0-2.263.84q-.025.056-.047.113z" class="cls-12" data-name="shoe"/>
            </g>
        </g>
        <g id="Head_Front_Wavy" data-name="Head/Front/Wavy" transform="rotate(14 -4236.346 1492.15)">
            <g id="Head-4" data-name="Head" transform="translate(32.431 6.767)">
                <path id="Path_261" d="M7.051 29.175C3.119 24.6.457 18.993.9 12.71 2.183-5.393 27.607-1.41 32.553 7.726s4.358 32.312-2.034 33.945c-2.549.651-7.979-.944-13.506-4.246l3.469 24.324H0z" class="cls-3" data-name="Path 261"/>
            </g>
            <path id="hair-4" d="M66.917 18.6a23.055 23.055 0 0 0-1.1-3.62A16.891 16.891 0 0 0 63.663 11a30.139 30.139 0 0 0-5.7-6.129A18.736 18.736 0 0 0 44.172.477a14.227 14.227 0 0 0-6.917 2.79c-1.846 1.406-3.622 3.476-6.012 3.625-2.6.162-4.985-2.114-7.071-3.519a19.093 19.093 0 0 0-7.6-3.188A12.7 12.7 0 0 0 4.463 4.72C1.086 8.705-1.369 14.549.849 19.83a6.772 6.772 0 0 0 1.7 2.495c.7.629 1.764 1.3 2.047 2.3.3 1.068-.6 2.446-.946 3.41a9.957 9.957 0 0 0-.763 4.331 11.136 11.136 0 0 0 3.452 6.438 11.512 11.512 0 0 0 5.954 3.03 16.852 16.852 0 0 0 4.479.342 14.048 14.048 0 0 0 2.121-.422 1.931 1.931 0 0 1 1.687.407 13.936 13.936 0 0 0 8.92 2.191c2.691-.222 5.793-.869 7.989-2.7 2.438-2.03 2.39-4.829 1.816-7.82.608.3 2.29.483 1.285-.707a5.454 5.454 0 0 0-1.661-.94 6.037 6.037 0 0 1-1.661-1.267c-1.865-2.126.019-6.453 2.363-7.166 3.482-1.059 4.262 3.822 6.748 5.085 1.429.726 2.925-.266 4-1.28a15.842 15.842 0 0 0 3.256-4.985c.7-1.507 1.342-3.035 2.051-4.534.331-.7 1.477-2.68.9-3.471 2.494-.493 5.272.534 7.421 1.882a5.048 5.048 0 0 1 2.038 2.154c.1.211.322.837.6.863.516.048.323-.578.272-.875" class="cls-4" data-name="hair"/>
        </g>
        <g id="Group_242" data-name="Group 242">
            <path id="Shirt" d="M0 96.812h65.3c2.984 0 2.422-4.287 1.99-6.451C62.31 65.394 42.878 38.48 42.878 2.939L24.043 0C8.464 24.932 3.076 55.629 0 96.812z" class="cls-14" transform="rotate(1 -64580.857 13818.609)"/>
            <path id="Coat-Front" d="M30.509 27.491a10.759 10.759 0 0 1-6.5-5.475C17.126 9.655 19.612 2.85 26.969.613s13.918 2.371 25.64 2.371a11.855 11.855 0 0 1 1.751.116l5.9.335q25.376 85.578 14 114.192H22.859l-8.215.143S8.927 57.068 30.509 27.491z" class="cls-2" transform="rotate(1 -64394.946 12102.209)"/>
            <path id="Shade" d="M19.886-12.263c12.729-.222 35 32.514 35 32.514l-3.4 9.28L0 29.3c3.552-8.241 7.156-41.34 19.886-41.563z" class="cls-15" transform="rotate(1 -69467.155 13367.795)"/>
        </g>
        <g id="Group_256" data-name="Group 256" transform="translate(690)">
            <path id="Shirt-2" d="M0 96.812h65.3c2.984 0 2.422-4.287 1.99-6.451C62.31 65.394 42.878 38.48 42.878 2.939L24.043 0C8.464 24.932 3.076 55.629 0 96.812z" class="cls-12" data-name="Shirt" transform="rotate(1 -64580.857 13818.609)"/>
            <path id="Coat-Front-2" d="M30.509 27.491a10.759 10.759 0 0 1-6.5-5.475C17.126 9.655 19.612 2.85 26.969.613s13.918 2.371 25.64 2.371a11.855 11.855 0 0 1 1.751.116l5.9.335q25.376 85.578 14 114.192H22.859l-8.215.143S8.927 57.068 30.509 27.491z" class="cls-13" data-name="Coat-Front" transform="rotate(1 -64394.946 12102.209)"/>
        </g>
        <g id="Group_252" data-name="Group 252" transform="translate(449)">
            <path id="Shirt-3" d="M0 96.812h65.3c2.984 0 2.422-4.287 1.99-6.451C62.31 65.394 42.878 38.48 42.878 2.939L24.043 0C8.464 24.932 3.076 55.629 0 96.812z" class="cls-14" data-name="Shirt" transform="rotate(1 -64580.857 13818.609)"/>
            <path id="Coat-Front-3" d="M30.509 27.491a10.759 10.759 0 0 1-6.5-5.475C17.126 9.655 19.612 2.85 26.969.613s13.918 2.371 25.64 2.371a11.855 11.855 0 0 1 1.751.116l5.9.335q25.376 85.578 14 114.192H22.859l-8.215.143S8.927 57.068 30.509 27.491z" class="cls-13" data-name="Coat-Front" transform="rotate(1 -64394.946 12102.209)"/>
            <path id="Shade-2" d="M19.886-12.263c12.729-.222 35 32.514 35 32.514l-3.4 9.28L0 29.3c3.552-8.241 7.156-41.34 19.886-41.563z" class="cls-15" data-name="Shade" transform="rotate(1 -69467.155 13367.795)"/>
        </g>
        <g id="Group_245" data-name="Group 245" transform="translate(227)">
            <path id="Shirt-4" d="M0 96.812h65.3c2.984 0 2.422-4.287 1.99-6.451C62.31 65.394 42.878 38.48 42.878 2.939L24.043 0C8.464 24.932 3.076 55.629 0 96.812z" class="cls-12" data-name="Shirt" transform="rotate(1 -64580.857 13818.609)"/>
            <path id="Coat-Front-4" d="M30.509 27.491a10.759 10.759 0 0 1-6.5-5.475C17.126 9.655 19.612 2.85 26.969.613s13.918 2.371 25.64 2.371a11.855 11.855 0 0 1 1.751.116l6.35 1.3c16.917 57.047 21.13 94.153 13.544 113.23H22.859l-8.215.143S8.927 57.068 30.509 27.491z" class="cls-12" data-name="Coat-Front" transform="rotate(1 -64394.946 12102.209)"/>
            <path id="Shade-3" d="M19.886-12.263c12.729-.222 35 32.514 35 32.514l-3.4 9.28L0 29.3c3.552-8.241 7.156-41.34 19.886-41.563z" class="cls-15" data-name="Shade" transform="rotate(1 -69467.155 13367.795)"/>
        </g>
        <path id="Path_244" d="M-3324.461 3908.632h-42.926s-18.6-5.226-18.512-32.338" class="cls-6" data-name="Path 244" transform="translate(3702 -2656)"/>
        <g id="Group_241" data-name="Group 241">
            <path id="Skin-5" d="M175.082 0l-27.555 20.38a73.872 73.872 0 0 0-18.727 7.581c-1.184 1.087-2.616 3.289 2.3 2.908s10.1-.558 10.774 1.129-2.295 3.706-.925 5.983q1.37 2.277 12.946-11.419l27.287-11.4z" class="cls-3" data-name="Skin" transform="rotate(-131 510.353 596.793)"/>
            <path id="Coat-Back-5" d="M0 1.9L7.242 0c29.328 21.061 44.473 65.126 80 86.063l-7.179 10.63C21.43 94.621 2.246 40.935 0 1.9z" class="cls-2" data-name="Coat-Back" transform="rotate(6 -10799.899 2829.66)"/>
        </g>
        <g id="Group_247" data-name="Group 247" transform="translate(227)">
            <path id="Skin-6" d="M175.082 0l-27.555 20.38a73.872 73.872 0 0 0-18.727 7.581c-1.184 1.087-2.616 3.289 2.3 2.908s10.1-.558 10.774 1.129-2.295 3.706-.925 5.983q1.37 2.277 12.946-11.419l27.287-11.4z" class="cls-3" data-name="Skin" transform="rotate(-134.03 491.518 598.318)"/>
            <path id="Coat-Back-6" d="M0 1.9L7.242 0c29.328 21.061 44.473 65.126 80 86.063l-7.179 10.63C21.43 94.621 2.246 40.935 0 1.9z" class="cls-12" data-name="Coat-Back" transform="rotate(3 -21782.99 5026.293)"/>
        </g>
        <g id="Group_255" data-name="Group 255" transform="translate(38.451 763.964)">
            <path id="Path_306" d="M785.877 556.889l-55.8 7.382-2.791.368-27.276-14.57v-3.41l85.248-9.3z" class="cls-16" data-name="Path 306" transform="translate(-.006 -66.138)"/>
            <path id="Path_307" d="M740.85 562.907l60.45-7.127-.619 11.16-47.083 3.453z" class="cls-17" data-name="Path 307" transform="translate(-25.037 -77.427)"/>
            <path id="Path_308" d="M755.074 711.587v3.662l-2.791.387L725 701.05v-3.41l26.041 13.936s3.414.324 4.033.011z" class="cls-18" data-name="Path 308" transform="translate(-25 -217.119)"/>
            <path id="Path_309" d="M810.393 572.6l-12.527 58.085a3.708 3.708 0 0 0 4.111 4.463l79.252-10.49a3.709 3.709 0 0 0 3.035-2.508l17.1-51.562a3.716 3.716 0 0 0-3.7-4.878l-83.816 3.979a3.716 3.716 0 0 0-3.455 2.911z" class="cls-19" data-name="Path 309" transform="translate(-69.608 -136.26)"/>
            <g id="Group_180" data-name="Group 180" transform="translate(654.449 443.923)">
                <g id="Group_166" data-name="Group 166" transform="translate(112.696 8.338)">
                    <g id="event-grab-03">
                        <path id="Path_187" d="M107.568 59.986l5.617-5.615a1.385 1.385 0 0 1 1.958 1.958l-5.613 5.615a3.153 3.153 0 1 0 4.458 4.459l5.615-5.615a1.384 1.384 0 1 1 1.958 1.957l-5.616 5.615a5.922 5.922 0 0 1-8.377-8.374z" data-name="Path 187" transform="translate(-101.295 -50.755)"/>
                        <path id="Path_188" d="M182.64 113.955l5.618-5.618a1.38 1.38 0 0 1 1.95 0l.007.007a1.38 1.38 0 0 1 0 1.949l-5.619 5.619a1.38 1.38 0 0 1-1.95 0l-.007-.01a1.38 1.38 0 0 1 .001-1.947z" data-name="Path 188" transform="translate(-173.157 -101.515)"/>
                        <path id="Path_189" d="M55.36 12.779L47.338 20.8A10.462 10.462 0 1 1 32.545 6L38.161.391a1.385 1.385 0 0 1 1.958 1.96L34.5 7.966a7.692 7.692 0 1 0 10.882 10.878L53.228 11 47.79 5.558A1.384 1.384 0 0 1 49.748 3.6l5.615 5.615a2.519 2.519 0 0 1 0 3.563z" data-name="Path 189" transform="translate(-29.48 .015)"/>
                    </g>
                </g>
            </g>
        </g>
        <g id="Group_250" data-name="Group 250" transform="translate(445 -1)">
            <path id="Skin-7" d="M175.082 0l-27.555 20.38a73.872 73.872 0 0 0-18.727 7.581c-1.184 1.087-2.616 3.289 2.3 2.908s10.1-.558 10.774 1.129-2.295 3.706-.925 5.983q1.37 2.277 12.946-11.419l27.287-11.4z" class="cls-1" data-name="Skin" transform="rotate(-131 510.353 596.793)"/>
            <path id="Coat-Back-7" d="M0 1.9L7.242 0c29.328 21.061 44.473 65.126 80 86.063l-7.179 10.63C21.43 94.621 2.246 40.935 0 1.9z" class="cls-13" data-name="Coat-Back" transform="rotate(6 -10799.899 2829.66)"/>
        </g>
        <g id="Group_258" data-name="Group 258" transform="rotate(-83 1074.407 128.145)">
            <path id="Skin-8" d="M47.436 38.306l-27.555-20.38A73.872 73.872 0 0 1 1.15 10.345c-1.184-1.087-2.616-3.289 2.3-2.908s10.1.558 10.774-1.129S11.925 2.6 13.3.325q1.37-2.277 12.946 11.419l27.287 11.4z" class="cls-3" data-name="Skin" transform="rotate(127 50.594 39.532)"/>
            <path id="Coat-Back-8" d="M0 94.795l7.242 1.9C36.57 75.632 51.714 31.567 87.237 10.63L80.058 0C21.43 2.072 2.246 55.758 0 94.795z" class="cls-13" data-name="Coat-Back" transform="rotate(-6 350.234 18.355)"/>
        </g>
    </g>
</svg>
