<svg xmlns="http://www.w3.org/2000/svg" width="273.131" height="197.851" viewBox="0 0 273.131 197.851">
    <defs>
        <style>
            .cls-1{fill:#ffc107}.cls-2{fill:#fff}.cls-3{fill:#00bcd4}.cls-4{fill:#008ea0}.cls-5{fill:#f8664f}.cls-6{fill:#fcbc04}.cls-7{fill:#e59730}.cls-8{fill:#f9e109}.cls-9{fill:#c5cfd6}.cls-10{fill:#707070}.cls-11{fill:#57b7eb}.cls-12{fill:#4891d3}.cls-13{fill:#252525}
        </style>
    </defs>
    <g id="Group_330" data-name="Group 330">
        <g id="Group_325" data-name="Group 325">
            <path id="Path_359" d="M98.926 0A98.926 98.926 0 1 1 0 98.926 98.926 98.926 0 0 1 98.926 0z" class="cls-1" data-name="Path 359" transform="translate(38.605)"/>
            <g id="Group_325-2" data-name="Group 325" transform="translate(0 48.256)">
                <rect id="Rectangle_123" width="50.187" height="13.512" class="cls-1" data-name="Rectangle 123" rx="6.756" transform="translate(34.745)"/>
                <rect id="Rectangle_124" width="50.187" height="13.512" class="cls-2" data-name="Rectangle 124" rx="6.756" transform="translate(18.337 13.512)"/>
                <rect id="Rectangle_125" width="50.187" height="13.512" class="cls-1" data-name="Rectangle 125" rx="6.756" transform="translate(22.198 27.024)"/>
                <rect id="Rectangle_126" width="19.303" height="13.512" class="cls-1" data-name="Rectangle 126" rx="6.756" transform="translate(0 27.024)"/>
                <rect id="Rectangle_127" width="19.303" height="13.512" class="cls-1" data-name="Rectangle 127" rx="6.756" transform="translate(11.582)"/>
            </g>
            <g id="Group_326" data-name="Group 326" transform="rotate(180 136.565 87.344)">
                <rect id="Rectangle_123-2" width="50.187" height="13.512" class="cls-1" data-name="Rectangle 123" rx="6.756" transform="translate(34.745)"/>
                <rect id="Rectangle_124-2" width="50.187" height="13.512" class="cls-2" data-name="Rectangle 124" rx="6.756" transform="translate(18.337 13.512)"/>
                <rect id="Rectangle_125-2" width="50.187" height="13.512" class="cls-1" data-name="Rectangle 125" rx="6.756" transform="translate(22.198 27.024)"/>
                <rect id="Rectangle_126-2" width="19.303" height="13.512" class="cls-1" data-name="Rectangle 126" rx="6.756" transform="translate(0 27.024)"/>
                <rect id="Rectangle_127-2" width="19.303" height="13.512" class="cls-1" data-name="Rectangle 127" rx="6.756" transform="translate(11.582)"/>
            </g>
        </g>
        <g id="Fill_Outline" data-name="Fill Outline" transform="translate(79.599 50.22)">
            <path id="Path_360" d="M49.96 3A25.632 25.632 0 0 0 26 28.9v1.079a14.39 14.39 0 0 0 14.39 14.39h5.4v30.58h37.77V31.78A28.78 28.78 0 0 0 54.78 3z" class="cls-3" data-name="Path 360" transform="translate(17.21 -1.201)"/>
            <path id="Path_361" d="M79.692 52.781C67.1 57.512 51.866 47.8 45.516 31.052c-3.705-9.929-3.328-20.074.036-27.682A25.848 25.848 0 0 0 26 28.606v1.079a14.39 14.39 0 0 0 14.39 14.39h5.4v30.578h37.769V50.748a18.868 18.868 0 0 1-3.867 2.033z" class="cls-4" data-name="Path 361" transform="translate(17.211 -.906)"/>
            <path id="Path_362" d="M35.39 37h43.169a14.39 14.39 0 0 1 14.39 14.39v28.78H21V51.39A14.39 14.39 0 0 1 35.39 37z" class="cls-3" data-name="Path 362" transform="translate(13.218 25.955)"/>
            <path id="Path_363" d="M76.76 72.974v-8.993a5.4 5.4 0 0 0-5.4 5.4v3.6h-5.4a28.78 28.78 0 0 1-28.78-28.78V37h-1.8A14.39 14.39 0 0 0 21 51.39v28.78h71.949v-7.196z" class="cls-4" data-name="Path 363" transform="translate(13.218 25.955)"/>
            <path id="Path_364" d="M43.195 28.9c0 2.986-1.619 5.4-3.6 5.4S36 31.888 36 28.9s1.619-1.8 3.6-1.8 3.595-1.184 3.595 1.8z" class="cls-5" data-name="Path 364" transform="translate(25.198 17.865)"/>
            <path id="Path_365" d="M37 31h17.987v12.591a8.994 8.994 0 1 1-17.987 0z" class="cls-6" data-name="Path 365" transform="translate(25.997 21.163)"/>
            <path id="Path_366" d="M37 43.231a18.347 18.347 0 0 0 3.6.36A17.987 17.987 0 0 0 54.987 36.4V31H37z" class="cls-7" data-name="Path 366" transform="translate(25.997 21.163)"/>
            <path id="Path_367" d="M47.987 54.968A17.987 17.987 0 0 1 30 36.98V18.993h1.673A30.7 30.7 0 0 0 53.383 10a11.17 11.17 0 0 0 10.973 8.993h1.619V36.98a17.987 17.987 0 0 1-17.988 17.988z" class="cls-8" data-name="Path 367" transform="translate(20.406 4.39)"/>
            <path id="Path_368" d="M64.356 18.994A11.17 11.17 0 0 1 53.383 10a30.7 30.7 0 0 1-21.711 8.994H30v17.987a17.987 17.987 0 0 0 17.987 17.987 18.581 18.581 0 0 0 3.6-.36 18.437 18.437 0 0 1-14.39-18.167v-5.828a8.868 8.868 0 0 1 5.576-8.31 30.74 30.74 0 0 0 10.61-6.903 11.17 11.17 0 0 0 10.973 8.99h1.619v-5.4z" class="cls-6" data-name="Path 368" transform="translate(20.406 4.39)"/>
            <path id="Path_393" d="M12.591 0A12.591 12.591 0 1 1 0 12.591 12.591 12.591 0 0 1 12.591 0z" class="cls-9" data-name="Path 393" transform="translate(23.425 46.767)"/>
            <path id="Path_369" d="M34.639 29.21a12.159 12.159 0 0 1-1.511 4.245 12.591 12.591 0 0 1-17.2 4.6c-.27-.144-.5-.324-.755-.486a12.591 12.591 0 1 0 19.466-8.359z" class="cls-10" data-name="Path 369" transform="translate(8.428 19.733)"/>
            <path id="Path_372" d="M16.494 68.168l-6.224-3.6L23.347 34.73a16.063 16.063 0 0 1 12.447 7.195z" class="cls-8" data-name="Path 372" transform="translate(4.647 24.142)"/>
            <path id="Path_373" d="M31.225 36.21L20.972 52.758a8.994 8.994 0 0 1-7.9 4.227l-2.806 6.4 6.224 3.6 19.3-26.243a15.883 15.883 0 0 0-4.569-4.533z" class="cls-6" data-name="Path 373" transform="translate(4.647 25.324)"/>
            <circle id="Ellipse_85" cx="3.597" cy="3.597" r="3.597" class="cls-11" data-name="Ellipse 85" transform="translate(1.841 14.39)"/>
            <path id="Path_374" d="M7 4h14.39v7.195H7z" class="cls-11" data-name="Path 374" transform="translate(2.036 -.403)"/>
            <circle id="Ellipse_86" cx="3.597" cy="3.597" r="3.597" class="cls-11" data-name="Ellipse 86" transform="translate(16.23 17.987)"/>
            <circle id="Ellipse_87" cx="3.597" cy="3.597" r="3.597" class="cls-11" data-name="Ellipse 87" transform="translate(1.841 43.169)"/>
            <path id="Path_375" d="M0 0h10.792v7.195H0z" class="cls-11" data-name="Path 375" transform="rotate(29.333 -54.076 49.667)"/>
            <path id="Path_376" d="M8.4 15.252a3.584 3.584 0 0 1-3.271-5.072 3.6 3.6 0 1 0 4.749 4.749 3.6 3.6 0 0 1-1.475.324z" class="cls-12" data-name="Path 376" transform="translate(-1.165 4.534)"/>
            <path id="Path_377" d="M16.4 17.252a3.584 3.584 0 0 1-3.274-5.072 3.6 3.6 0 1 0 4.749 4.749 3.6 3.6 0 0 1-1.475.324z" class="cls-12" data-name="Path 377" transform="translate(5.224 6.131)"/>
            <path id="Path_378" d="M10.6 4H7v7.195h14.39V7.6h-7.195A3.6 3.6 0 0 1 10.6 4z" class="cls-12" data-name="Path 378" transform="translate(2.036 -.403)"/>
            <path id="Path_379" d="M6.571 30.663a3.6 3.6 0 0 1-1.565-4.443 3.489 3.489 0 0 0-1.493 1.439 3.61 3.61 0 0 0 6.26 3.6 3.705 3.705 0 0 0 .216-.468 3.6 3.6 0 0 1-3.418-.128z" class="cls-12" data-name="Path 379" transform="translate(-1.133 17.345)"/>
            <path id="Path_380" d="M16.373 26.3a3.6 3.6 0 0 1-1.367-4.893v-.126l-1.8-1.025-3.6 6.278 9.407 5.288 1.817-3.04z" class="cls-12" data-name="Path 380" transform="translate(4.12 12.585)"/>
            <g id="Group_331" data-name="Group 331">
                <path id="Path_381" d="M45.169 28.912A14.39 14.39 0 0 0 25.042 47.6l-1.673 3.831a1.8 1.8 0 1 0 3.292 1.439l4.407-10.055a14.39 14.39 0 0 1 9.12 5.27L22.613 71.956l-1.8-1.043-1.637-.953 4.589-10.47a1.8 1.8 0 1 0-3.292-1.439l-5.252 11.962a1.8 1.8 0 0 0 .755 2.284l2.033 1.169v.18A14.282 14.282 0 0 1 3.8 86.345a1.8 1.8 0 0 0 0 3.6 17.862 17.862 0 0 0 17.555-14.557l.845.507a1.8 1.8 0 0 0 2.356-.5l14.5-19.624a14.39 14.39 0 0 0 6.116-26.855zm2.158 17.861a10.792 10.792 0 0 1-4.982 4.443l1.511-2.051a1.8 1.8 0 0 0 0-2.069 17.987 17.987 0 0 0-13.85-8 1.8 1.8 0 0 0-1.8 1.079l-1.025 2.392a10.792 10.792 0 1 1 20.146 4.209z" class="cls-13" data-name="Path 381" transform="translate(-1.958 17.981)"/>
                <path id="Path_382" d="M21.8 48.44a1.8 1.8 0 0 0-1.8 1.8v20.792a1.8 1.8 0 0 0 3.6 0V50.239a1.8 1.8 0 0 0-1.8-1.799z" class="cls-13" data-name="Path 382" transform="translate(12.419 35.093)"/>
                <path id="Path_384" d="M41.483 26a7.2 7.2 0 0 1-2.158 0 3.723 3.723 0 0 0-3.2.558 3.993 3.993 0 0 0-1.115 3.148c0 4.029 2.374 7.195 5.4 7.195s5.4-3.166 5.4-7.195a3.993 3.993 0 0 0-1.115-3.148 3.723 3.723 0 0 0-3.2-.558zm-1.079 7.3c-.737 0-1.8-1.4-1.8-3.6v-.18h.18a13.923 13.923 0 0 0 3.238 0h.18v.18c0 2.194-1.061 3.6-1.8 3.6z" class="cls-13" data-name="Path 384" transform="translate(24.392 17.057)"/>
                <path id="Path_385" d="M50.209 23.183a1.806 1.806 0 1 0 2.554-2.554 8.994 8.994 0 0 0-12.717 0 1.8 1.8 0 0 0 2.536 2.554 5.54 5.54 0 0 1 7.627 0z" class="cls-13" data-name="Path 385" transform="translate(28.005 10.776)"/>
                <path id="Path_386" d="M75.366 63.157h-8.994v-6.242a19.786 19.786 0 0 0 5.4-13.544V32.578a1.8 1.8 0 1 0-3.6 0v10.793a16.188 16.188 0 1 1-32.377 0v-7.195a2.177 2.177 0 0 0 .4-.27 5.54 5.54 0 0 1 7.627 0 1.806 1.806 0 1 0 2.554-2.554A8.994 8.994 0 0 0 40 30.78a8.8 8.8 0 0 0-4.209 1.1v-4.698a32.215 32.215 0 0 0 20.739-7.591 13.059 13.059 0 0 0 11.818 7.591h1.622a1.8 1.8 0 1 0 0-3.6h-1.619a9.407 9.407 0 0 1-8.832-6.242 26.855 26.855 0 0 1 2.68.755 2.248 2.248 0 0 0 .576.09 1.8 1.8 0 0 0 .666-3.508c-.791-.252-1.583-.468-2.374-.684v-3a1.8 1.8 0 0 0-3.6 0v2.267c-1.187-.18-2.392-.27-3.6-.342v-1.924a1.8 1.8 0 1 0-3.6 0v1.925a24.114 24.114 0 0 0-3.6.342v-2.267a1.8 1.8 0 1 0-3.6 0v3c-.791.216-1.583.432-2.374.684a1.8 1.8 0 1 0 1.163 3.422 32.377 32.377 0 0 1 12.771-1.547 28.78 28.78 0 0 1-18.959 7.033H34a1.8 1.8 0 0 0-1.8 1.8v14.171a12.591 12.591 0 0 1-3.6-8.778V29.7A23.689 23.689 0 0 1 50.813 5.6h4.767a26.981 26.981 0 0 1 26.981 26.978v28.348a1.8 1.8 0 1 0 3.6 0V32.578A30.578 30.578 0 0 0 55.58 2h-4.893A27.3 27.3 0 0 0 25 29.7v1.08a16.278 16.278 0 0 0 7.2 13.436 19.786 19.786 0 0 0 12.588 17.573v1.367h-5.4a1.8 1.8 0 1 0 0 3.6h5.4a10.792 10.792 0 1 0 21.585 0h8.994a12.591 12.591 0 0 1 12.59 12.589v28.78a1.8 1.8 0 1 0 3.6 0v-28.78a16.188 16.188 0 0 0-16.191-16.188zm-12.591 3.6a7.195 7.195 0 1 1-14.39 0v-3.942a19.552 19.552 0 0 0 14.39-2.878z" class="cls-13" data-name="Path 386" transform="translate(16.411 -2)"/>
                <path id="Path_387" d="M52.8 51a1.8 1.8 0 0 0-1.8 1.8v16.187a1.8 1.8 0 0 0 3.6 0V52.8a1.8 1.8 0 0 0-1.8-1.8z" class="cls-13" data-name="Path 387" transform="translate(37.179 37.137)"/>
                <path id="Path_388" d="M30.8 51a1.8 1.8 0 0 0-1.8 1.8v16.187a1.8 1.8 0 0 0 3.6 0V52.8a1.8 1.8 0 0 0-1.8-1.8z" class="cls-13" data-name="Path 388" transform="translate(19.607 37.137)"/>
                <path id="Path_389" d="M7.415 24.585a5.4 5.4 0 0 0 5.4-5.4v-5.4H23.6v3.921a5.4 5.4 0 1 0 3.6 5.072V4.8A1.8 1.8 0 0 0 25.4 3H11.012a1.8 1.8 0 0 0-1.8 1.8v9.317a5.4 5.4 0 1 0-1.8 10.469zm14.39 0a1.8 1.8 0 1 1 1.8-1.8 1.8 1.8 0 0 1-1.805 1.8zM12.811 6.6H23.6v3.6H12.811zM7.415 17.39a1.8 1.8 0 1 1-1.8 1.8 1.8 1.8 0 0 1 1.8-1.8z" class="cls-13" data-name="Path 389" transform="translate(-1.977 -1.201)"/>
                <path id="Path_390" d="M17.956 20.24l-3.6 6.224-2.856 4.964a5.594 5.594 0 0 0-1.4-1.187 5.4 5.4 0 1 0 1.979 7.375l4.5-7.788 7.788 4.5a1.8 1.8 0 0 0 2.446-.666l3.6-6.224a1.817 1.817 0 0 0-.648-2.464l-9.353-5.4a1.8 1.8 0 0 0-2.446.666zM7.866 36.716a1.889 1.889 0 0 1-1.367-.18 1.8 1.8 0 1 1 1.367.18zm16.728-6.349l-6.224-3.6 1.8-3.112 6.224 3.6z" class="cls-13" data-name="Path 390" transform="translate(-1.96 11.849)"/>
                <path id="Path_391" d="M9.4 45.792a1.8 1.8 0 0 0 1.8-1.8v-1.8H13a1.8 1.8 0 1 0 0-3.6h-1.8V36.8a1.8 1.8 0 1 0-3.6 0v1.8H5.8a1.8 1.8 0 1 0 0 3.6h1.8V44a1.8 1.8 0 0 0 1.8 1.792z" class="cls-13" data-name="Path 391" transform="translate(-.361 24.358)"/>
                <path id="Path_392" d="M20.8 12.195h1.8v1.8a1.8 1.8 0 1 0 3.6 0v-1.8H28a1.8 1.8 0 0 0 0-3.6h-1.8V6.8a1.8 1.8 0 1 0-3.6 0v1.8h-1.8a1.8 1.8 0 0 0 0 3.6z" class="cls-13" data-name="Path 392" transform="translate(11.62 .396)"/>
            </g>
        </g>
    </g>
</svg>
