<svg xmlns="http://www.w3.org/2000/svg" width="91.052" height="91.004" viewBox="0 0 91.052 91.004">
    <defs>
        <style>
            .cls-1{fill:#f9e109}.cls-2{fill:#00bcd4}.cls-3{fill:#008ea0}.cls-4{fill:#fcbc04}.cls-5{fill:#e59730}.cls-6{fill:#252525}
        </style>
    </defs>
    <g id="Fill_Outline" data-name="Fill Outline">
        <path id="Path_470" d="M58.583 21l2.351 4.747 5.232.758-3.792 3.7.895 5.217-4.686-2.457-4.683 2.458.895-5.217L51 26.505l5.232-.758z" class="cls-1" data-name="Path 470" transform="translate(23.323 7.822)"/>
        <path id="Path_471" d="M46.333 63.558a20.717 20.717 0 0 0 3.276-1.365l3.534 3.519 8.569-8.569-3.519-3.534a20.717 20.717 0 0 0 1.365-3.276h4.975V38.2h-4.975a20.717 20.717 0 0 0-1.365-3.276l3.519-3.534-8.569-8.569-3.535 3.519a20.717 20.717 0 0 0-3.276-1.365V20H34.2v4.975a20.717 20.717 0 0 0-3.276 1.365l-3.534-3.519-8.569 8.569 3.519 3.534a20.717 20.717 0 0 0-1.365 3.276H16v12.133h4.975a20.717 20.717 0 0 0 1.365 3.276l-3.519 3.534 8.569 8.569 3.534-3.519a20.717 20.717 0 0 0 3.276 1.365" class="cls-2" data-name="Path 471" transform="translate(5.241 7.306)"/>
        <path id="Path_472" d="M50.124 58.471a24.994 24.994 0 0 1-22.355-36.232l-.379-.379-8.569 8.569 3.519 3.534a20.718 20.718 0 0 0-1.365 3.276H16v12.133h4.975a20.717 20.717 0 0 0 1.365 3.276l-3.519 3.534 8.569 8.568 3.534-3.519A20.718 20.718 0 0 0 34.2 62.6h12.133a20.718 20.718 0 0 0 3.276-1.365l3.534 3.519 8.569-8.569-.379-.379a24.812 24.812 0 0 1-11.208 2.669z" class="cls-3" data-name="Path 472" transform="translate(5.241 8.266)"/>
        <path id="Path_473" d="M28 39h12.133v27.3A6.067 6.067 0 1 1 28 66.3z" class="cls-4" data-name="Path 473" transform="translate(11.44 17.121)"/>
        <path id="Path_474" d="M38.65 29v9.1h-6.067V29h-1.516A6.067 6.067 0 0 0 25 35.067v6.067a6.067 6.067 0 0 0 6.067 6.066h9.1a6.067 6.067 0 0 0 6.067-6.067v-6.066A6.067 6.067 0 0 0 40.166 29z" class="cls-1" data-name="Path 474" transform="translate(9.89 11.955)"/>
        <path id="Path_475" d="M37.1 46.583h3.033V39H28v27.3a6.067 6.067 0 1 0 12.133 0v-1.517a6.067 6.067 0 0 1-6.067-6.067v-9.1a3.033 3.033 0 0 1 3.034-3.033z" class="cls-5" data-name="Path 475" transform="translate(11.44 17.121)"/>
        <path id="Path_476" d="M43.2 43.98h-6.067a9.1 9.1 0 0 1-9.1-9.1v-3.033a5.915 5.915 0 0 1 .546-2.487A6.066 6.066 0 0 0 25 34.881v6.067a6.067 6.067 0 0 0 6.067 6.067h9.1a6.067 6.067 0 0 0 5.521-3.579 5.915 5.915 0 0 1-2.488.544z" class="cls-4" data-name="Path 476" transform="translate(9.89 12.141)"/>
        <path id="Path_477" d="M61.07 28.76a2.093 2.093 0 0 0-1.941 0 2.063 2.063 0 0 1-3.029-2.184 2.063 2.063 0 0 0-.607-1.835 2.9 2.9 0 0 1-.379-.5l-4.114.59 3.792 3.7-.892 5.218 4.686-2.457 4.686 2.457-.819-4.808a2.017 2.017 0 0 1-1.38-.182z" class="cls-4" data-name="Path 477" transform="translate(23.323 9.496)"/>
        <path id="Path_478" d="M49.583 8l2.351 4.747 5.232.758-3.792 3.7.895 5.217-4.686-2.457-4.683 2.458.895-5.217L42 13.505l5.232-.758z" class="cls-1" data-name="Path 478" transform="translate(18.673 1.106)"/>
        <path id="Path_479" d="M52.07 15.76a2.093 2.093 0 0 0-1.941 0 2.063 2.063 0 0 1-3.029-2.184 2.063 2.063 0 0 0-.607-1.835 2.9 2.9 0 0 1-.379-.5l-4.114.59 3.792 3.7-.892 5.218 4.686-2.457 4.686 2.457-.819-4.808a2.017 2.017 0 0 1-1.38-.182z" class="cls-4" data-name="Path 479" transform="translate(18.673 2.78)"/>
        <path id="Path_480" d="M34.583 3l2.351 4.747 5.232.758-3.792 3.7.895 5.217-4.686-2.457-4.683 2.458.895-5.217L27 8.505l5.232-.758z" class="cls-1" data-name="Path 480" transform="translate(10.924 -1.477)"/>
        <path id="Path_481" d="M37.07 10.76a2.093 2.093 0 0 0-1.941 0A2.063 2.063 0 0 1 32.1 8.576a2.063 2.063 0 0 0-.55-1.836 2.9 2.9 0 0 1-.379-.5L27 6.831l3.792 3.7-.892 5.218 4.686-2.457 4.686 2.457-.819-4.808a2.017 2.017 0 0 1-1.383-.181z" class="cls-4" data-name="Path 481" transform="translate(10.924 .197)"/>
        <path id="Path_482" d="M19.583 8l2.351 4.747 5.232.758-3.792 3.7.895 5.217-4.686-2.457-4.683 2.458.895-5.217L12 13.505l5.248-.758z" class="cls-1" data-name="Path 482" transform="translate(3.174 1.106)"/>
        <path id="Path_483" d="M22.07 15.76a2.093 2.093 0 0 0-1.941 0 2.063 2.063 0 0 1-3.029-2.184 2.063 2.063 0 0 0-.607-1.835 2.9 2.9 0 0 1-.379-.5l-4.114.59 3.792 3.7-.892 5.218 4.686-2.457 4.686 2.457-.819-4.808a2.017 2.017 0 0 1-1.38-.182z" class="cls-4" data-name="Path 483" transform="translate(3.174 2.78)"/>
        <path id="Path_484" d="M10.583 21l2.336 4.747 5.248.758-3.792 3.7.895 5.217-4.686-2.457L5.9 35.423l.895-5.217L3 26.505l5.248-.758z" class="cls-1" data-name="Path 484" transform="translate(-1.476 7.822)"/>
        <path id="Path_485" d="M13.07 28.76a2.093 2.093 0 0 0-1.941 0A2.063 2.063 0 0 1 8.1 26.576a2.063 2.063 0 0 0-.55-1.836 2.9 2.9 0 0 1-.379-.5L3 24.831l3.792 3.7-.892 5.218 4.686-2.457 4.686 2.457-.819-4.808a2.017 2.017 0 0 1-1.38-.182z" class="cls-4" data-name="Path 485" transform="translate(-1.476 9.496)"/>
        <g id="Group_346" data-name="Group 346">
            <path id="Path_486" d="M65.049 37.2h-3.9a44.345 44.345 0 0 0-.607-1.517l2.76-2.76a1.517 1.517 0 0 0 0-2.138L54.72 22.2a1.517 1.517 0 0 0-2.138 0l-2.7 2.866a13.737 13.737 0 0 0-1.517-.607v-3.942A1.517 1.517 0 0 0 46.849 19H34.716a1.517 1.517 0 0 0-1.516 1.517v3.9c-.485.182-.971.379-1.517.607l-2.76-2.76a1.517 1.517 0 0 0-2.138 0L18.2 30.845a1.517 1.517 0 0 0 0 2.138l2.866 2.7a13.737 13.737 0 0 0-.606 1.517h-3.943A1.517 1.517 0 0 0 15 38.716v12.133a1.517 1.517 0 0 0 1.517 1.517h3.9c.182.485.379.971.607 1.517l-2.76 2.76a1.517 1.517 0 0 0 0 2.138l8.584 8.584a1.517 1.517 0 0 0 2.138 0l2.7-2.866a13.736 13.736 0 0 0 1.517.607v11.526a7.583 7.583 0 0 0 15.166 0V53.245a7.583 7.583 0 0 0 4.55-6.946v-6.066a7.583 7.583 0 0 0-7.583-7.583h-1.52a1.517 1.517 0 0 0-1.516 1.516v7.583h-3.034v-7.583a1.517 1.517 0 0 0-1.517-1.517h-1.516a7.583 7.583 0 0 0-7.583 7.583V46.3a7.583 7.583 0 0 0 7.583 7.583h9.1v22.749a4.55 4.55 0 0 1-9.1 0V58.22a1.517 1.517 0 0 0-3.033 0v3.64c-.349-.167-.713-.318-1.062-.5a1.517 1.517 0 0 0-1.774.273l-2.457 2.457-6.431-6.431 2.457-2.459a1.517 1.517 0 0 0 .273-1.774 17.927 17.927 0 0 1-1.274-3.033 1.517 1.517 0 0 0-1.441-1.062h-3.458v-9.1h3.458a1.517 1.517 0 0 0 1.441-1.062 17.926 17.926 0 0 1 1.274-3.033 1.517 1.517 0 0 0-.273-1.774l-2.457-2.457 6.431-6.431 2.457 2.457a1.517 1.517 0 0 0 1.774.273 18.457 18.457 0 0 1 3.033-1.274 1.517 1.517 0 0 0 1.062-1.441v-3.456h9.1v3.458a1.517 1.517 0 0 0 1.062 1.441 17.927 17.927 0 0 1 3.033 1.274 1.517 1.517 0 0 0 1.774-.273l2.457-2.457 6.431 6.431-2.457 2.457a1.517 1.517 0 0 0-.273 1.774 17.927 17.927 0 0 1 1.274 3.033 1.517 1.517 0 0 0 1.441 1.062h3.458v9.1h-3.459a1.517 1.517 0 0 0-1.441 1.062 17.927 17.927 0 0 1-1.274 3.033 1.517 1.517 0 0 0 .273 1.774l2.457 2.457-7.507 7.507A1.512 1.512 0 0 0 54.72 67.3l8.58-8.58a1.517 1.517 0 0 0 0-2.138l-2.806-2.7a13.738 13.738 0 0 0 .607-1.517h3.943a1.517 1.517 0 0 0 1.517-1.517V38.716a1.517 1.517 0 0 0-1.512-1.516zM36.233 50.849a4.55 4.55 0 0 1-4.55-4.55v-6.066a4.55 4.55 0 0 1 4.55-4.55v7.583a1.517 1.517 0 0 0 1.517 1.517h6.067a1.517 1.517 0 0 0 1.517-1.517v-7.583a4.55 4.55 0 0 1 4.55 4.55V46.3a4.55 4.55 0 0 1-4.55 4.55z" class="cls-6" data-name="Path 486" transform="translate(4.724 6.789)"/>
            <path id="Path_487" d="M34.033 64.233V44.517a1.517 1.517 0 0 0-3.033 0v19.716a1.517 1.517 0 0 0 3.033 0z" class="cls-6" data-name="Path 487" transform="translate(12.99 19.188)"/>
            <path id="Path_488" d="M29.688 13.256l-.773 4.429a1.534 1.534 0 0 0 2.214 1.638l3.971-2.155 3.974 2.093a1.7 1.7 0 0 0 .713.167 1.525 1.525 0 0 0 1.5-1.8l-.773-4.429 3.23-3.079a1.517 1.517 0 0 0-.844-2.597l-4.444-.637-1.989-4.035a1.517 1.517 0 0 0-2.73 0l-1.986 4.035-4.444.637a1.517 1.517 0 0 0-.849 2.593zm3.291-3.488a1.517 1.517 0 0 0 1.137-.834l.984-1.988.986 1.987a1.517 1.517 0 0 0 1.137.834l2.2.318-1.591 1.515a1.517 1.517 0 0 0-.44 1.35l.379 2.184-1.956-1a1.517 1.517 0 0 0-1.426 0l-1.956 1.031.379-2.184a1.517 1.517 0 0 0-.44-1.35l-1.592-1.515z" class="cls-6" data-name="Path 488" transform="translate(10.404 -1.996)"/>
            <path id="Path_489" d="M68.2 26.554a1.517 1.517 0 0 0-1.228-1.031l-4.444-.637-2.063-4.034a1.517 1.517 0 0 0-2.73 0l-1.987 4.034-4.444.637a1.517 1.517 0 0 0-.849 2.593l3.23 3.139-.773 4.429a1.534 1.534 0 0 0 2.214 1.638l3.974-2.154 3.974 2.093a1.7 1.7 0 0 0 .713.167 1.525 1.525 0 0 0 1.5-1.8l-.773-4.429 3.23-3.139a1.517 1.517 0 0 0 .455-1.5zm-6.294 3.033a1.517 1.517 0 0 0-.44 1.35l.379 2.184-2.032-.986a1.608 1.608 0 0 0-1.426 0l-1.956 1.031.379-2.184a1.517 1.517 0 0 0-.44-1.35l-1.59-1.516 2.2-.318a1.517 1.517 0 0 0 1.137-.834l.986-2.017.986 1.987a1.517 1.517 0 0 0 1.137.834l2.2.318z" class="cls-6" data-name="Path 489" transform="translate(22.803 7.303)"/>
            <path id="Path_490" d="M55.684 24.17a1.517 1.517 0 0 0 .607-1.517l-.773-4.429 3.23-3.139a1.517 1.517 0 0 0-.849-2.593l-4.444-.637-1.987-4a1.517 1.517 0 0 0-2.73 0l-1.987 4.034-4.444.637a1.517 1.517 0 0 0-.849 2.593l3.23 3.139-.773 4.429a1.534 1.534 0 0 0 2.214 1.638l3.971-2.157 3.974 2.093a1.7 1.7 0 0 0 .713.167 1.517 1.517 0 0 0 .895-.258zm-2.851-7.583a1.517 1.517 0 0 0-.44 1.35l.379 2.184-1.956-.986a1.608 1.608 0 0 0-1.426 0l-1.956 1.031.379-2.184a1.517 1.517 0 0 0-.44-1.35l-1.593-1.516 2.2-.318a1.517 1.517 0 0 0 1.137-.834l.986-2.017.986 1.987a1.517 1.517 0 0 0 1.137.834l2.2.318z" class="cls-6" data-name="Path 490" transform="translate(18.154 .587)"/>
            <path id="Path_491" d="M18.9 25.523l-4.444-.637-1.987-4.034a1.517 1.517 0 0 0-2.73 0l-1.988 4.034-4.444.637a1.517 1.517 0 0 0-.849 2.593l3.23 3.139-.773 4.429a1.534 1.534 0 0 0 2.214 1.638l3.971-2.154 3.989 2.093a1.527 1.527 0 0 0 2.2-1.638l-.773-4.429 3.23-3.139a1.517 1.517 0 0 0-.849-2.593zm-5.066 4.11a1.517 1.517 0 0 0-.44 1.35l.379 2.184-1.956-1.031a1.608 1.608 0 0 0-1.426 0l-1.958 1.03.379-2.184a1.517 1.517 0 0 0-.44-1.35l-1.516-1.516 2.2-.318a1.517 1.517 0 0 0 1.137-.834l.91-2.017.986 1.987a1.517 1.517 0 0 0 1.137.834l2.2.318z" class="cls-6" data-name="Path 491" transform="translate(-1.995 7.303)"/>
            <path id="Path_492" d="M24.091 24.292a1.527 1.527 0 0 0 2.2-1.638l-.773-4.429 3.23-3.139a1.517 1.517 0 0 0-.849-2.593l-4.444-.637-1.987-4a1.517 1.517 0 0 0-2.73 0l-1.987 4.034-4.444.637a1.517 1.517 0 0 0-.849 2.593l3.23 3.139-.773 4.429a1.534 1.534 0 0 0 2.214 1.638l3.971-2.158zm-6.658-4.125l.379-2.184a1.517 1.517 0 0 0-.44-1.35l-1.517-1.517 2.2-.318a1.517 1.517 0 0 0 1.137-.834l.91-2.017.986 1.987a1.517 1.517 0 0 0 1.137.834l2.2.318-1.593 1.514a1.517 1.517 0 0 0-.44 1.35l.379 2.184-1.956-1a1.608 1.608 0 0 0-1.426 0z" class="cls-6" data-name="Path 492" transform="translate(2.655 .587)"/>
        </g>
    </g>
</svg>
