<svg xmlns="http://www.w3.org/2000/svg" width="273.131" height="197.851" viewBox="0 0 273.131 197.851">
    <defs>
        <style>
            .cls-1{fill:#ffc107}.cls-2{fill:#fff}.cls-3{fill:#00bcd4}.cls-4{fill:#008ea0}.cls-5{fill:#f9e109}.cls-6{fill:#fcbc04}.cls-7{fill:#c5cfd6}.cls-8{fill:#707070}.cls-9{fill:#e59730}.cls-10{fill:#252525}
        </style>
    </defs>
    <g id="Group_329" data-name="Group 329">
        <g id="Group_325" data-name="Group 325">
            <path id="Path_359" d="M98.926 0A98.926 98.926 0 1 1 0 98.926 98.926 98.926 0 0 1 98.926 0z" class="cls-1" data-name="Path 359" transform="translate(38.605)"/>
            <g id="Group_325-2" data-name="Group 325" transform="translate(0 48.256)">
                <rect id="Rectangle_123" width="50.187" height="13.512" class="cls-1" data-name="Rectangle 123" rx="6.756" transform="translate(34.745)"/>
                <rect id="Rectangle_124" width="50.187" height="13.512" class="cls-2" data-name="Rectangle 124" rx="6.756" transform="translate(18.337 13.512)"/>
                <rect id="Rectangle_125" width="50.187" height="13.512" class="cls-1" data-name="Rectangle 125" rx="6.756" transform="translate(22.198 27.024)"/>
                <rect id="Rectangle_126" width="19.303" height="13.512" class="cls-1" data-name="Rectangle 126" rx="6.756" transform="translate(0 27.024)"/>
                <rect id="Rectangle_127" width="19.303" height="13.512" class="cls-1" data-name="Rectangle 127" rx="6.756" transform="translate(11.582)"/>
            </g>
            <g id="Group_326" data-name="Group 326" transform="rotate(180 136.565 87.344)">
                <rect id="Rectangle_123-2" width="50.187" height="13.512" class="cls-1" data-name="Rectangle 123" rx="6.756" transform="translate(34.745)"/>
                <rect id="Rectangle_124-2" width="50.187" height="13.512" class="cls-2" data-name="Rectangle 124" rx="6.756" transform="translate(18.337 13.512)"/>
                <rect id="Rectangle_125-2" width="50.187" height="13.512" class="cls-1" data-name="Rectangle 125" rx="6.756" transform="translate(22.198 27.024)"/>
                <rect id="Rectangle_126-2" width="19.303" height="13.512" class="cls-1" data-name="Rectangle 126" rx="6.756" transform="translate(0 27.024)"/>
                <rect id="Rectangle_127-2" width="19.303" height="13.512" class="cls-1" data-name="Rectangle 127" rx="6.756" transform="translate(11.582)"/>
            </g>
        </g>
        <g id="Fill_Outline" data-name="Fill Outline" transform="translate(63.699 61.768)">
            <path id="Path_337" d="M7 25h72.539v62.867H7z" class="cls-3" data-name="Path 337" transform="translate(5.09 -22.582)"/>
            <path id="Path_338" d="M19.09 46.762V25H7v62.867h72.539v-12.09H48.106A29.016 29.016 0 0 1 19.09 46.762z" class="cls-4" data-name="Path 338" transform="translate(5.09 -22.582)"/>
            <path id="Path_339" d="M37 76.523h58.031V59.6l-9.672-9.672H73.27L63.6 33H37z" class="cls-5" data-name="Path 339" transform="translate(47.629 -11.238)"/>
            <path id="Path_340" d="M41.836 45.09V33H37v43.523h58.031V64.434H61.18A19.344 19.344 0 0 1 41.836 45.09z" class="cls-6" data-name="Path 340" transform="translate(47.629 -11.238)"/>
            <path id="Path_341" d="M41 49.926h26.6L57.926 33H41z" class="cls-7" data-name="Path 341" transform="translate(53.301 -11.238)"/>
            <path id="Path_342" d="M57.926 45.09a9.672 9.672 0 0 1-9.672-9.672V33H41v16.926h26.6l-2.759-4.836z" class="cls-8" data-name="Path 342" transform="translate(53.301 -11.238)"/>
            <circle id="Ellipse_78" cx="12.09" cy="12.09" r="12.09" class="cls-3" data-name="Ellipse 78" transform="translate(103.973 55.613)"/>
            <path id="Path_343" d="M3 47h9.672v9.672H3z" class="cls-6" data-name="Path 343" transform="translate(-.582 8.613)"/>
            <path id="Path_344" d="M48.368 38.336L38.091 48.589l-6.819-6.843 10.253-10.253a9.672 9.672 0 0 0-13.686 0L21 38.336A9.672 9.672 0 0 0 21 52l6.843 6.843a9.672 9.672 0 0 0 13.686 0L48.368 52a9.672 9.672 0 0 0 0-13.662z" class="cls-5" data-name="Path 344" transform="translate(20.931 -17.397)"/>
            <path id="Path_345" d="M20.322 68.994l23.841-23.841-6.843-6.843L6.66 68.994z" class="cls-5" data-name="Path 345" transform="translate(4.608 -3.709)"/>
            <path id="Path_346" d="M27.19 42.31L7 62.5v.822h12.839l15.234-15.209a29.692 29.692 0 0 1-7.883-5.8z" class="cls-6" data-name="Path 346" transform="translate(5.09 1.963)"/>
            <path id="Path_347" d="M48.37 37.168l-6.843 6.842a9.672 9.672 0 0 1-13.686 0L21 37.168A9.841 9.841 0 0 1 18.871 34 9.672 9.672 0 0 0 21 44.446l6.843 6.843a9.672 9.672 0 0 0 13.686 0l6.843-6.843A9.672 9.672 0 0 0 50.5 34a9.841 9.841 0 0 1-2.128 3.168z" class="cls-6" data-name="Path 347" transform="translate(20.929 -9.82)"/>
            <path id="Path_348" d="M37.32 38.31l-3.99 4.09a7.254 7.254 0 0 1-1.668 7.544l-8.9 8.9a7.254 7.254 0 0 1-6.891 1.91l-.774-.193-8.437 8.433h13.662l23.841-23.841z" class="cls-6" data-name="Path 348" transform="translate(4.608 -3.709)"/>
            <path id="Path_349" d="M30.816 43.47l-8.052 8.052a7.254 7.254 0 0 1-6.891 1.91l-.774-.193-8.439 8.438h13.662l15.233-15.209a29.016 29.016 0 0 1-4.739-3z" class="cls-9" data-name="Path 349" transform="translate(4.608 3.608)"/>
            <circle id="Ellipse_79" cx="12.09" cy="12.09" r="12.09" class="cls-3" data-name="Ellipse 79" transform="translate(26.598 55.613)"/>
            <g id="Group_328" data-name="Group 328">
                <path id="Path_350" d="M58.508 46a14.508 14.508 0 1 0 14.508 14.508A14.508 14.508 0 0 0 58.508 46zm0 24.18a9.672 9.672 0 1 1 9.672-9.672 9.672 9.672 0 0 1-9.672 9.672z" class="cls-10" data-name="Path 350" transform="translate(57.555 7.195)"/>
                <path id="Path_351" d="M42.356 72.018l8.584-8.608a12.09 12.09 0 0 0 15.233-1.523l6.819-6.794a12.09 12.09 0 0 0 0-17.1 2.115 2.115 0 0 0-3.288.169l-8.56 8.56-3.53-3.554 8.56-8.535a2.418 2.418 0 0 0 0-3.434 12.09 12.09 0 0 0-17.119 0l-6.819 6.964a12.09 12.09 0 0 0-1.547 15.088l-24.18 24.18V52.675a2.418 2.418 0 1 0-4.836 0v19.343H4.418A2.418 2.418 0 0 0 2 74.436v9.672a2.418 2.418 0 0 0 2.418 2.418H26.18a14.508 14.508 0 1 0 16.176-14.508zm-14.508 7.641l-1.934 1.934H19.1l24.828-24.735 3.434 3.409-13.445 13.444a14.508 14.508 0 0 0-6.045 6.045zm17.772-38.3l6.843-6.819a7.254 7.254 0 0 1 5.15-2.031 7.109 7.109 0 0 1 3.119.7l-8.245 8.245a2.418 2.418 0 0 0 0 3.434l6.843 6.843a2.418 2.418 0 0 0 3.409 0l8.269-8.269a7.254 7.254 0 0 1-1.308 8.269l-6.84 6.843a7.447 7.447 0 0 1-10.252 0l-6.843-6.843a7.254 7.254 0 0 1-.121-10.276zM6.836 76.854h4.836v4.836H6.836zM40.688 96.2a9.672 9.672 0 1 1 9.672-9.672 9.672 9.672 0 0 1-9.672 9.672z" class="cls-10" data-name="Path 351" transform="translate(-2 -18.823)"/>
                <circle id="Ellipse_82" cx="2.418" cy="2.418" r="2.418" class="cls-10" data-name="Ellipse 82" transform="translate(113.645 65.285)"/>
                <circle id="Ellipse_83" cx="2.418" cy="2.418" r="2.418" class="cls-10" data-name="Ellipse 83" transform="translate(36.27 65.285)"/>
                <path id="Path_352" d="M31.762 30.418A2.418 2.418 0 0 0 29.344 28H12.418a2.418 2.418 0 1 0 0 4.836h16.926a2.418 2.418 0 0 0 2.418-2.418z" class="cls-10" data-name="Path 352" transform="translate(9.344 -18.328)"/>
                <path id="Path_353" d="M4.418 37.836h26.6a2.418 2.418 0 1 0 0-4.836h-26.6a2.418 2.418 0 1 0 0 4.836z" class="cls-10" data-name="Path 353" transform="translate(-2 -11.238)"/>
                <path id="Path_354" d="M13.418 37a2.418 2.418 0 0 0 0 4.836h7.254a2.418 2.418 0 1 0 0-4.836z" class="cls-10" data-name="Path 354" transform="translate(10.762 -5.566)"/>
                <path id="Path_355" d="M32.254 50.836a2.418 2.418 0 0 0 0-4.836h-4.836a2.418 2.418 0 0 0 0 4.836z" class="cls-10" data-name="Path 355" transform="translate(30.613 7.195)"/>
                <path id="Path_356" d="M30 44.418a2.418 2.418 0 0 0 2.418 2.418h4.836a2.418 2.418 0 1 0 0-4.836h-4.836A2.418 2.418 0 0 0 30 44.418z" class="cls-10" data-name="Path 356" transform="translate(37.703 1.523)"/>
                <path id="Path_357" d="M40 45.418v4.836a2.418 2.418 0 0 0 4.836 0v-4.836a2.418 2.418 0 1 0-4.836 0z" class="cls-10" data-name="Path 357" transform="translate(51.883 2.941)"/>
                <path id="Path_358" d="M140.705 70.643l-9.672-9.672a2.418 2.418 0 0 0-1.717-.7h-10.687l-8.971-15.717a2.418 2.418 0 0 0-2.1-1.209H83.375V26.418A2.418 2.418 0 0 0 80.957 24H8.418A2.418 2.418 0 0 0 6 26.418v12.09a2.418 2.418 0 1 0 4.836 0v-9.672h67.7v58.031h-22a2.418 2.418 0 1 0 0 4.836h34.335a2.418 2.418 0 1 0 0-4.836h-7.5V48.18h4.836v14.508a2.418 2.418 0 0 0 2.418 2.418h37.7l8.245 8.245v1.427h-4.836a2.418 2.418 0 1 0 0 4.836h4.836v7.254h-2.66a2.418 2.418 0 1 0 0 4.836h5.078a2.418 2.418 0 0 0 2.418-2.418V72.359a2.418 2.418 0 0 0-.7-1.717zM93.047 60.27V48.18h13.105l6.915 12.09z" class="cls-10" data-name="Path 358" transform="translate(3.672 -24)"/>
            </g>
        </g>
    </g>
</svg>
