<?xml version="1.0" encoding="utf-8"?>
<!-- Generator: Adobe Illustrator 23.0.6, SVG Export Plug-In . SVG Version: 6.00 Build 0)  -->
<svg version="1.1" id="Layer_1" xmlns="http://www.w3.org/2000/svg" xmlns:xlink="http://www.w3.org/1999/xlink" x="0px" y="0px"
	 viewBox="0 0 535 126" style="enable-background:new 0 0 535 126;" xml:space="preserve">
<style type="text/css">
	.st0{enable-background:new    ;}
	.st1{fill:#00BCD4;}
	.st2{fill:#252525;}
</style>
<g class="st0">
	<g>
		<g>
			<path class="st1" d="M133.8,61.9l-4.5,4.5l-38,38c-0.1,0.1-0.1,0.1-0.2,0.2l-0.7,0.7c-0.1,0.1-0.2,0.2-0.2,0.2
				c-0.9,0.9-1.8,1.6-2.7,2.4c-4.4,3.8-9.3,6.7-14.4,8.8c-6.4,2.6-13.2,3.9-20,3.9c-13.6,0-27.2-5.2-37.6-15.5
				C2.8,92.3-2.1,74.7,0.8,58.2c1.7-9.7,6.1-19,13.1-26.7L43,2.4c2.5-2.5,6.5-2.5,9,0s2.5,6.5,0,9L30.2,33.2L26,37.4
				c-0.3,0.3-0.7,0.6-1,0.9c-0.2,0.2-0.4,0.4-0.5,0.5c-0.5,0.5-1,1-1.4,1.5C8.8,56.2,9.2,80.7,24.5,96c1.3,1.3,2.6,2.5,4,3.6
				c0.2,0.1,0.3,0.2,0.4,0.4l0,0c15.6,11.5,37.6,10.5,52-3.2c0.2-0.2,0.5-0.5,0.7-0.7c0.1-0.1,0.2-0.2,0.4-0.4
				c0.1-0.1,0.2-0.2,0.4-0.4L106,71.7l7.6-7.6l6.7-6.7L92.5,29.5c-1.3-1.3-1.8-2.9-1.8-4.5s0.6-3.2,1.8-4.5l0,0c2.5-2.5,6.5-2.5,9,0
				l32,32l0.7,0.7C136.3,55.8,136.2,59.5,133.8,61.9z"/>
			<path class="st1" d="M26,37.4l-2.9,2.9c0.5-0.5,0.9-1,1.4-1.5c0.2-0.2,0.4-0.4,0.5-0.5C25.4,38,25.7,37.6,26,37.4z"/>
		</g>
		<g>
			<path class="st1" d="M48.7,73.5L48.7,73.5c-2.5-2.5-2.5-6.5,0-9l28.2-28.2c2.5-2.5,6.5-2.5,9,0l0,0c2.5,2.5,2.5,6.5,0,9
				L57.7,73.5C55.2,75.9,51.2,75.9,48.7,73.5z"/>
		</g>
		<path class="st1" d="M104.4,57.4c0,1.6-0.7,3.2-2.1,4.5l-8.9,8.9L75,89.3c-4.2,4.2-8.8,7-13.7,8.5c-5,1.4-9.9,1.5-14.9,0.2
			c-5-1.4-9.5-4.1-13.6-8.1c-4.1-4.1-6.8-8.6-8.2-13.6s-1.3-10,0.1-15s4.3-9.5,8.5-13.7l27.3-27.3c1.3-1.3,2.9-2,4.7-1.9
			c1.8,0,3.4,0.7,4.8,2.2c1.2,1.2,1.8,2.7,1.8,4.5s-0.6,3.3-1.9,4.7l-27.4,27c-2.4,2.4-4,5.1-4.9,8c-0.8,2.9-0.9,5.8-0.1,8.6
			c0.8,2.8,2.2,5.2,4.3,7.3c2.2,2.2,4.7,3.7,7.6,4.6c2.9,0.9,5.8,0.9,8.9,0.2c3-0.7,5.7-2.3,8.1-4.7l27.3-27.3
			c1.4-1.4,2.9-2.1,4.5-2.2c0.1,0,0.2,0,0.4,0c0.3,0,0.6,0,0.9,0.1c0,0,0.1,0,0.2,0s0.2,0,0.3,0.1c0.1,0,0.2,0,0.3,0.1
			c0.3,0.1,0.6,0.2,0.9,0.4c0.1,0.1,0.3,0.2,0.4,0.2c0.4,0.2,0.7,0.5,1,0.8l0.2,0.2c0.2,0.2,0.3,0.3,0.4,0.5
			c0.3,0.3,0.5,0.6,0.7,0.9c0,0.1,0.1,0.2,0.2,0.3c0,0.1,0.1,0.2,0.1,0.3c0.1,0.2,0.2,0.4,0.2,0.5c0,0.2,0.1,0.4,0.1,0.5
			c0,0.2,0.1,0.3,0.1,0.5C104.4,56.9,104.5,57.2,104.4,57.4z"/>
	</g>
	<g>
		<path class="st2" d="M209.6,67c-0.7,0.6-1.5,0.9-2.5,0.9h-26.4c0.4,3.6,1.7,6.6,4.1,8.8c2.4,2.2,5.4,3.3,8.9,3.3
			c2.4,0,4.3-0.4,5.8-1.1s2.8-1.6,4-2.7c0.7-0.4,1.5-0.7,2.2-0.7c0.9,0,1.6,0.3,2.2,0.9c0.6,0.6,0.9,1.3,0.9,2.1
			c0,1.1-0.5,2-1.5,2.9c-1.4,1.4-3.4,2.7-5.8,3.7c-2.4,1-4.9,1.5-7.4,1.5c-4,0-7.6-0.9-10.7-2.5S178,80,176.3,77
			c-1.7-3.1-2.5-6.5-2.5-10.3c0-4.2,0.9-7.9,2.6-11c1.7-3.2,4-5.6,6.8-7.3s5.9-2.5,9.1-2.5c3.2,0,6.2,0.8,9,2.5
			c2.8,1.6,5,3.9,6.7,6.8c1.7,2.9,2.6,6.1,2.6,9.7C210.7,65.6,210.3,66.4,209.6,67z M185.1,54.7c-2,1.6-3.4,4-4,7.3h22.1v-0.6
			c-0.2-2.7-1.4-4.8-3.6-6.5c-2.1-1.7-4.5-2.5-7.2-2.5C189.6,52.3,187.1,53.1,185.1,54.7z"/>
		<path class="st2" d="M250.9,47.2c0.7,0.6,1,1.4,1,2.2c0,0.4-0.2,1.1-0.5,1.9l-14.2,32.4c-0.3,0.7-0.7,1.2-1.3,1.6
			c-0.5,0.4-1.1,0.6-1.8,0.7c-0.8,0.1-1.5,0-2.2-0.4s-1.2-1-1.5-1.8l-14.2-32.4c-0.2-0.7-0.4-1.4-0.4-1.9c0-0.8,0.3-1.5,1-2.2
			s1.5-1,2.5-1c0.7,0,1.4,0.2,2,0.5c0.6,0.4,1.1,0.9,1.4,1.7L234,74.7l11.3-26.3c0.7-1.5,1.8-2.2,3.2-2.2
			C249.5,46.2,250.3,46.5,250.9,47.2z"/>
		<path class="st2" d="M292.6,67c-0.7,0.6-1.5,0.9-2.5,0.9h-26.4c0.4,3.6,1.7,6.6,4.1,8.8c2.4,2.2,5.4,3.3,8.9,3.3
			c2.4,0,4.3-0.4,5.8-1.1s2.8-1.6,4-2.7c0.7-0.4,1.5-0.7,2.2-0.7c0.9,0,1.6,0.3,2.2,0.9s0.9,1.3,0.9,2.1c0,1.1-0.5,2-1.5,2.9
			c-1.4,1.4-3.4,2.7-5.8,3.7s-4.9,1.5-7.4,1.5c-4,0-7.6-0.9-10.7-2.5c-3.1-1.7-5.4-4.1-7.1-7.1c-1.7-3.1-2.5-6.5-2.5-10.3
			c0-4.2,0.9-7.9,2.6-11c1.7-3.2,4-5.6,6.8-7.3s5.9-2.5,9.1-2.5s6.2,0.8,9,2.5c2.8,1.6,5,3.9,6.7,6.8c1.7,2.9,2.6,6.1,2.6,9.7
			C293.7,65.6,293.3,66.4,292.6,67z M268.1,54.7c-2,1.6-3.4,4-4,7.3h22.1v-0.6c-0.2-2.7-1.4-4.8-3.6-6.5c-2.1-1.7-4.5-2.5-7.2-2.5
			C272.6,52.3,270.1,53.1,268.1,54.7z"/>
		<path class="st2" d="M335.5,61.9v20.4c0,1-0.4,1.8-1,2.5c-0.7,0.7-1.5,1.1-2.6,1.1c-1,0-1.8-0.4-2.5-1.1s-1-1.6-1-2.5V62
			c0-2.9-0.7-5.3-2-7c-1.3-1.8-3.6-2.6-6.6-2.6c-2,0-3.8,0.4-5.4,1.3c-1.6,0.9-2.9,2-3.8,3.5s-1.4,3.1-1.4,4.8v20.3
			c0,1-0.4,1.8-1,2.5c-0.7,0.7-1.5,1.1-2.6,1.1s-1.9-0.4-2.5-1c-0.7-0.7-1-1.5-1-2.6V50.2c0-1,0.4-1.8,1-2.5
			c0.7-0.7,1.5-1.1,2.5-1.1c1.1,0,1.9,0.4,2.6,1.1c0.7,0.7,1,1.6,1,2.5v2.6c1.3-2,3.1-3.7,5.4-5c2.3-1.4,4.8-2.1,7.5-2.1
			C331,45.7,335.5,51.1,335.5,61.9z"/>
		<path class="st2" d="M356.7,53.6v22.3c0,2.5,1.1,3.8,3.4,3.8c0.4,0,0.8-0.1,1.4-0.3c0.6-0.2,1.1-0.3,1.4-0.3
			c0.7,0,1.2,0.3,1.6,0.8s0.7,1.3,0.7,2.1c0,1.1-0.6,2-1.8,2.7c-1.2,0.7-2.5,1.1-4,1.1c-1.6,0-3.2-0.2-4.5-0.5
			c-1.4-0.4-2.6-1.3-3.7-2.7c-1.1-1.4-1.6-3.6-1.6-6.5V53.6h-4.3c-0.9,0-1.7-0.3-2.3-0.9c-0.6-0.6-0.9-1.4-0.9-2.3
			c0-0.9,0.3-1.7,0.9-2.3s1.4-0.9,2.3-0.9h4.3v-6.3c0-1,0.4-1.8,1-2.5s1.5-1.1,2.6-1.1c1,0,1.8,0.4,2.5,1.1c0.7,0.7,1,1.6,1,2.5v6.3
			h6.2c0.9,0,1.7,0.3,2.3,0.9c0.6,0.6,0.9,1.4,0.9,2.3c0,0.9-0.3,1.7-0.9,2.3s-1.4,0.9-2.3,0.9H356.7L356.7,53.6z"/>
		<path class="st2" d="M409.6,47.1c0.7,0.7,1,1.6,1,2.7v33c0,4-0.9,7.4-2.6,10.1s-4.1,4.7-7,6s-6.3,2-10,2c-2,0-4.3-0.4-7-1.1
			s-4.4-1.4-5.1-2.2c-1.6-0.8-2.3-1.8-2.3-3c0-0.3,0.1-0.7,0.3-1.2c0.5-1.3,1.5-1.9,2.8-1.9c0.7,0,1.3,0.2,2.1,0.4
			c4,1.6,7.1,2.3,9.4,2.3c4,0,7-1,9.2-2.9c2.1-1.9,3.2-4.5,3.2-7.9v-4c-1.1,2-2.8,3.6-5.3,5s-5.1,2.1-7.8,2.1
			c-3.4,0-6.6-0.9-9.4-2.6c-2.9-1.8-5.1-4.2-6.7-7.3S372,70,372,66.1s0.8-7.4,2.4-10.5s3.8-5.6,6.7-7.3c2.8-1.8,5.9-2.6,9.3-2.6
			c2.7,0,5.3,0.6,7.7,1.9c2.4,1.3,4.2,2.8,5.6,4.6v-2.4c0-1.1,0.3-1.9,1-2.6c0.7-0.7,1.5-1.1,2.5-1.1
			C408.1,46.1,408.9,46.4,409.6,47.1z M397.7,78.3c1.9-1.2,3.4-2.8,4.5-4.9s1.6-4.5,1.6-7.2c0-2.7-0.5-5-1.6-7.1s-2.5-3.8-4.5-4.9
			c-1.9-1.2-4.1-1.8-6.5-1.8s-4.5,0.6-6.5,1.8s-3.4,2.9-4.5,5s-1.6,4.5-1.6,7.1s0.5,5,1.6,7.1s2.5,3.8,4.5,5c1.9,1.2,4,1.8,6.5,1.8
			C393.7,80,395.8,79.4,397.7,78.3z"/>
		<path class="st2" d="M444.1,46.7c0.9,0.7,1.4,1.5,1.4,2.5c0,1.2-0.3,2.1-0.9,2.7s-1.4,0.9-2.3,0.9c-0.4,0-1.1-0.2-2-0.4
			c-1.1-0.4-1.9-0.5-2.5-0.5c-1.6,0-3.1,0.5-4.5,1.6c-1.5,1.1-2.7,2.5-3.6,4.4s-1.4,4-1.4,6.3v18c0,1-0.4,1.8-1,2.5
			c-0.7,0.7-1.5,1.1-2.6,1.1s-1.9-0.4-2.5-1c-0.7-0.7-1-1.5-1-2.6v-32c0-1,0.4-1.8,1-2.5s1.5-1.1,2.5-1.1c1.1,0,1.9,0.4,2.6,1.1
			c0.7,0.7,1,1.6,1,2.5V54c1.1-2.5,2.7-4.4,4.9-5.9s4.7-2.3,7.5-2.3C442,45.7,443.2,46.1,444.1,46.7z"/>
		<path class="st2" d="M485.7,47.1c0.7,0.7,1,1.6,1,2.7v32.5c0,1-0.4,1.8-1,2.5c-0.7,0.7-1.5,1.1-2.6,1.1s-1.9-0.4-2.5-1
			c-0.7-0.7-1-1.5-1-2.6v-2c-1.3,1.8-3.1,3.2-5.3,4.5s-4.7,1.8-7.3,1.8c-3.4,0-6.5-0.9-9.2-2.6c-2.8-1.8-4.9-4.2-6.5-7.3
			c-1.6-3.1-2.3-6.6-2.3-10.5s0.8-7.4,2.3-10.5s3.7-5.6,6.5-7.3c2.7-1.8,5.8-2.6,9.1-2.6c2.7,0,5.1,0.5,7.4,1.6s4.1,2.5,5.4,4.2
			v-1.8c0-1.1,0.3-1.9,1-2.6c0.7-0.7,1.5-1.1,2.5-1.1C484.1,46.1,485,46.4,485.7,47.1z M474,78.2c1.8-1.2,3.2-2.9,4.3-4.9
			c1-2.1,1.5-4.5,1.5-7.1s-0.5-4.9-1.5-7s-2.5-3.8-4.3-5s-3.9-1.8-6.3-1.8c-2.3,0-4.4,0.6-6.3,1.8c-1.8,1.2-3.2,2.9-4.3,4.9
			c-1,2.1-1.5,4.5-1.5,7.1c0,2.7,0.5,5,1.5,7.1s2.5,3.8,4.3,4.9c1.8,1.2,3.9,1.8,6.3,1.8S472.2,79.4,474,78.2z"/>
		<path class="st2" d="M526.2,48.3c2.7,1.8,4.9,4.2,6.5,7.3s2.3,6.6,2.3,10.5s-0.8,7.4-2.3,10.6c-1.6,3.1-3.7,5.6-6.5,7.4
			c-2.7,1.8-5.8,2.6-9.1,2.6c-2.6,0-5-0.6-7.3-1.7c-2.2-1.1-4.1-2.6-5.5-4.3v2.2c0,1-0.4,1.8-1,2.5c-0.7,0.7-1.5,1.1-2.6,1.1
			c-1,0-1.8-0.4-2.5-1c-0.7-0.7-1-1.5-1-2.6V34c0-1.1,0.3-1.9,1-2.6c0.7-0.7,1.5-1,2.5-1c1.1,0,1.9,0.4,2.6,1.1s1,1.6,1,2.5v18.3
			c1.2-1.8,2.9-3.4,5.2-4.7c2.3-1.3,4.7-2,7.4-2C520.3,45.7,523.4,46.6,526.2,48.3z M522.3,78.2c1.8-1.2,3.3-2.9,4.3-5
			s1.5-4.5,1.5-7.1s-0.5-4.9-1.5-7s-2.5-3.8-4.3-4.9c-1.8-1.2-3.9-1.8-6.2-1.8s-4.5,0.6-6.3,1.8s-3.3,2.8-4.3,4.9s-1.5,4.4-1.5,7.1
			s0.5,5,1.5,7.1s2.5,3.8,4.3,5s4,1.8,6.3,1.8C518.4,80,520.5,79.4,522.3,78.2z"/>
	</g>
</g>
</svg>
